<?xml version="1.0" encoding="UTF-8" standalone="no"?>
<svg
   width="24"
   height="24"
   viewBox="0 0 24 24"
   id="rss-feed"
   version="1.1"
   xmlns="http://www.w3.org/2000/svg"
   xmlns:svg="http://www.w3.org/2000/svg">
  <defs
     id="defs2" />
  <path
     fill="white"
     d="M 0,0 H 24 V 24 H 0 Z"
     id="path1"
     style="display:none;fill:#ffffff" />
  <circle
     cx="7.5395455"
     cy="16.460453"
     r="2.1800001"
     id="circle1"
     style="fill:#ffffff" />
  <path
     d="m 7.0159445,8.8040553 c -0.84,-0.14 -1.59,0.55 -1.59,1.3999997 0,0.71 0.53,1.28 1.23,1.4 2.9200003,0.51 5.2200005,2.82 5.7400005,5.74 0.12,0.7 0.69,1.23 1.4,1.23 0.85,0 1.54,-0.75 1.41,-1.59 -0.68,-4.2 -3.99,-7.5099997 -8.1900005,-8.1799997 z m -0.03,-5.7099999 c -0.83,-0.09 -1.56,0.58 -1.56,1.41 0,0.73 0.55,1.33 1.27,1.4 6.0100005,0.6 10.7900005,5.3799996 11.3900005,11.3899996 0.07,0.73 0.67,1.28 1.4,1.28 0.84,0 1.5,-0.73 1.42,-1.56 -0.73,-7.3399997 -6.57,-13.1899996 -13.9200005,-13.9199996 z"
     id="path2"
     style="fill:#ffffff" />
</svg>
