<svg viewBox="0 0 1063 300" width="144" xmlns="http://www.w3.org/2000/svg"><path clip-rule="evenodd" d="m883.34 228.505c-15.899 16.385-16.22 43.052 0 59.234 16.347 16.347 43.032 16.347 59.352.006 16.42-16.349 16.412-42.893 0-59.234-13.472-13.498-13.465-35.334 0-48.801 15.929-16.402 16.248-43.204 0-59.39-16.327-16.351-43.008-16.347-59.352 0-13.554 13.098-35.404 13.361-48.799 0-13.471-13.491-13.471-35.3295-.005-48.8134 15.909-16.3935 16.233-43.0211.008-59.2195-16.328-16.38187-42.911-16.38187-59.254-.0056-16.385 16.3681-16.384 42.8583 0 59.2251 13.086 13.5183 13.351 35.4604 0 48.8134-15.898 16.391-16.222 43.188-.001 59.39 16.347 16.327 42.924 16.326 59.248 0 13.563-13.107 35.413-13.374 48.803 0 13.487 13.471 13.485 35.301 0 48.795zm59.347-156.8023c16.418-16.4097 16.418-42.9735-.002-59.385-16.378-16.42462-42.981-16.42463-59.343.0061-16.445 16.4035-16.454 42.9821 0 59.3841 16.354 16.3903 42.963 16.3903 59.345-.0052zm108.003 108.0053c16.41-16.41 16.41-42.979 0-59.39-16.38-16.425-42.99-16.425-59.348.006-16.445 16.403-16.454 42.982 0 59.384 16.358 16.39 42.968 16.395 59.348 0zm-964.2515-89.7119v18.5909l-33.1261 28.732c21.4644.507 37.5204 13.69 37.5204 35.661 0 19.437-15.042 39.887-44.4499 39.887-15.887 0-28.9008-4.056-45.6329-15.549l10.9857-16.056c13.5209 8.451 22.8165 12.169 33.9712 12.169 14.0279 0 22.3094-8.113 22.3094-20.282 0-12.337-9.4646-19.267-23.4925-19.267-7.4365 0-11.8307 1.352-14.1969 2.197l-9.9716-13.69 38.7035-33.464h-52.0554v-18.9289zm13.1079 18.9289h61.3506c-20.281 27.042-39.548 65.07-44.45 101.069h25.521c5.577-38.704 24.507-77.576 45.126-102.928v-17.0699h-87.5476zm85.3986 38.873c0-14.704 12.845-27.042 36-27.042 14.535 0 25.013 3.38 37.182 13.521l-11.831 14.366c-10.478-8.113-17.07-10.141-25.858-10.141-8.789 0-14.535 3.549-14.535 8.62 0 5.37 5.171 6.51 18.531 9.454.515.113 1.042.229 1.581.348 23.662 5.24 33.464 11.493 33.464 27.549 0 16.563-13.521 28.225-37.013 28.225-15.887 0-27.718-3.887-41.746-16.394l12.676-14.197c12.676 10.31 19.436 12.845 29.577 12.845 8.619 0 15.042-3.211 15.042-9.127 0-6.564-7.661-8.214-18.572-10.564-.887-.191-1.796-.387-2.723-.59-24.338-5.409-31.775-11.493-31.775-26.873zm111.642-47.323c0 7.098-5.747 12.845-13.014 12.845-7.268 0-13.014-5.747-13.014-12.845 0-7.0986 5.746-12.845 13.014-12.845 7.267 0 13.014 5.7464 13.014 12.845zm-24 109.519v-86.365h21.971v86.365zm100.148-76.731c-5.239-7.775-13.689-12.507-26.365-12.507-21.803 0-38.028 17.746-38.028 43.605 0 26.028 16.225 43.605 38.028 43.605 11.661 0 19.774-4.226 25.182-10.986v6.929c0 15.211-9.295 20.958-21.126 20.958-9.972 0-17.915-3.042-30.084-10.31l-10.648 15.887c14.028 9.127 27.38 12.676 41.07 12.676 23.831 0 42.253-12.676 42.253-37.351v-82.14h-20.282zm-21.464 56.112c-12.507 0-20.788-10.141-20.788-25.014s8.281-24.845 20.788-24.845c12.169 0 20.957 9.972 20.957 24.845s-8.788 25.014-20.957 25.014zm106.233-68.619c-11.831 0-20.619 4.901-26.028 12.676v-9.803h-20.45v86.365h21.971v-52.056c0-10.816 7.268-18.253 17.408-18.253 10.479 0 16.056 6.423 16.056 17.746v52.563h21.972v-59.154c0-17.577-10.817-30.084-30.929-30.084zm86.796 0c-17.07 0-29.577 6.592-40.393 19.436l13.859 12.676c8.957-8.619 15.042-14.028 26.872-14.028 9.972 0 16.225 4.733 16.225 13.183v2.028l-20.281 3.718c-19.605 3.55-37.351 10.479-37.351 30.422 0 17.578 14.535 24.676 30.929 24.676 13.352 0 22.647-4.563 27.887-11.831v8.958h19.774v-58.309c0-18.253-12.676-30.929-37.521-30.929zm-6.422 74.534c-8.282 0-13.183-3.211-13.183-8.62 0-8.112 8.62-11.154 21.633-13.859l14.535-3.042v5.071c0 15.042-11.83 20.45-22.985 20.45zm62.29-105.2939v119.9979h21.971v-119.9979zm37.445 57.8019c0-14.704 12.845-27.042 36-27.042 14.535 0 25.013 3.38 37.182 13.521l-11.831 14.366c-10.478-8.113-17.07-10.141-25.858-10.141-8.789 0-14.535 3.549-14.535 8.62 0 5.37 5.171 6.51 18.531 9.454.515.113 1.042.229 1.581.348 23.662 5.24 33.464 11.493 33.464 27.549 0 16.563-13.521 28.225-37.013 28.225-15.887 0-27.718-3.887-41.746-16.394l12.676-14.197c12.676 10.31 19.436 12.845 29.577 12.845 8.619 0 15.042-3.211 15.042-9.127 0-6.564-7.661-8.214-18.572-10.564-.887-.191-1.796-.387-2.723-.59-24.338-5.409-31.775-11.493-31.775-26.873z" fill="#000"/></svg>
