<svg width="180" viewBox="60 25 487 120" fill="none" xmlns="http://www.w3.org/2000/svg">
<path d="M106.697 105.566C107.163 105.374 107.587 105.091 107.941 104.731L152.342 60.1073C153.047 59.3811 153.441 58.4068 153.441 57.3924C153.441 56.378 153.047 55.4037 152.342 54.6775C151.986 54.3176 151.563 54.032 151.097 53.837C150.632 53.6421 150.132 53.5417 149.627 53.5417C149.122 53.5417 148.623 53.6421 148.157 53.837C147.691 54.032 147.268 54.3176 146.913 54.6775L105.203 96.551L90.8753 82.1585C90.5198 81.7986 90.097 81.5129 89.6311 81.3181C89.1652 81.1232 88.6655 81.0227 88.1608 81.0227C87.6561 81.0227 87.1564 81.1232 86.6905 81.3181C86.2246 81.5129 85.8017 81.7986 85.4462 82.1585C85.0858 82.512 84.7994 82.9341 84.6038 83.4004C84.4082 83.8666 84.3075 84.3674 84.3075 84.8733C84.3075 85.3795 84.4082 85.8803 84.6038 86.3465C84.7994 86.8127 85.0858 87.2349 85.4462 87.5884L102.536 104.731C102.889 105.087 103.308 105.368 103.77 105.559C104.232 105.751 104.727 105.848 105.227 105.846C105.731 105.853 106.231 105.757 106.697 105.566Z" fill="#fff"/>
<path d="M138.878 91.125C139.489 91.531 140.208 91.7444 140.941 91.7378C141.43 91.7442 141.916 91.6485 142.367 91.4566C142.818 91.2648 143.225 90.981 143.561 90.6233L170.8 63.2372C171.147 62.8952 171.422 62.4874 171.609 62.0374C171.797 61.5877 171.893 61.1048 171.893 60.6171C171.893 60.1294 171.797 59.6465 171.609 59.1967C171.422 58.7469 171.147 58.3391 170.8 57.9971C170.46 57.6529 170.056 57.3798 169.61 57.1934C169.165 57.0071 168.687 56.9111 168.204 56.9111C167.721 56.9111 167.243 57.0071 166.798 57.1934C166.352 57.3798 165.948 57.6529 165.608 57.9971L138.32 85.4069C137.799 85.9244 137.443 86.5864 137.298 87.3083C137.153 88.0301 137.226 88.779 137.507 89.459C137.789 90.1389 138.266 90.719 138.878 91.125Z" fill="#fff"/>
<path d="M163.672 110.849L174.388 100.084C174.736 99.7437 175.013 99.3371 175.203 98.8881C175.392 98.4391 175.491 97.9567 175.493 97.4689C175.495 96.9813 175.401 96.498 175.215 96.0474C175.03 95.5967 174.757 95.1875 174.412 94.8439C174.07 94.4992 173.664 94.2254 173.216 94.0388C172.768 93.8522 172.288 93.7561 171.804 93.7561C171.319 93.7561 170.839 93.8522 170.392 94.0388C169.944 94.2254 169.538 94.4992 169.195 94.8439L158.455 105.585C157.766 106.286 157.38 107.232 157.38 108.217C157.38 109.202 157.766 110.148 158.455 110.849C158.793 111.203 159.197 111.484 159.646 111.676C160.094 111.868 160.576 111.967 161.064 111.967C161.551 111.967 162.033 111.868 162.482 111.676C162.93 111.484 163.335 111.203 163.672 110.849Z" fill="#fff"/>
<path d="M153.616 100.724L174.388 79.8586C175.08 79.1636 175.469 78.2211 175.469 77.2385C175.469 76.2557 175.08 75.3132 174.388 74.6185C173.697 73.9235 172.758 73.5332 171.78 73.5332C170.802 73.5332 169.864 73.9235 169.172 74.6185L148.376 95.5315C147.697 96.2235 147.317 97.1561 147.317 98.1279C147.317 99.0995 147.697 100.032 148.376 100.724C148.717 101.078 149.124 101.36 149.573 101.555C150.023 101.75 150.506 101.855 150.996 101.862C151.486 101.855 151.969 101.75 152.419 101.555C152.869 101.36 153.275 101.078 153.616 100.724Z" fill="#fff"/>
<path d="M256.7 69.1992C256.7 69.2757 256.585 69.3332 256.527 69.2567C252.94 64.3375 246.692 61.3705 239.711 61.3705C226.752 61.3705 216.975 71.343 216.975 84.512C216.975 97.5468 226.984 107.73 239.711 107.73C246.711 107.73 252.959 104.744 256.527 99.8055C256.585 99.7289 256.7 99.7671 256.7 99.8438V104.323C256.7 105.701 257.819 106.811 259.168 106.811H261.193C261.52 106.808 261.843 106.742 262.144 106.616C262.445 106.489 262.718 106.305 262.947 106.074C263.176 105.843 263.357 105.57 263.48 105.269C263.602 104.969 263.664 104.647 263.662 104.323V64.7777C263.664 64.4542 263.602 64.1337 263.479 63.8341C263.356 63.5348 263.175 63.2623 262.946 63.0329C262.716 62.8032 262.443 62.6212 262.142 62.4967C261.842 62.3725 261.519 62.3084 261.193 62.3084H259.168C258.514 62.3185 257.889 62.5824 257.428 63.0438C256.966 63.5053 256.705 64.1276 256.7 64.7777V69.1992ZM245.998 100.131C234.311 103.978 223.975 95.6902 223.975 84.4353C223.934 82.2967 224.324 80.1714 225.12 78.1839C225.917 76.1963 227.106 74.3867 228.616 72.8608C230.126 71.335 231.928 70.1236 233.916 69.2977C235.904 68.4717 238.038 68.0478 240.193 68.0507C242.527 68.0258 244.838 68.4957 246.974 69.4289C249.11 70.3623 251.02 71.7373 252.577 73.4625C254.135 75.1874 255.303 77.2227 256.004 79.432C256.705 81.6411 256.922 83.9735 256.642 86.2728C256.436 89.3653 255.316 92.329 253.423 94.7936C251.53 97.2583 248.947 99.1146 245.998 100.131ZM340.065 61.3897C326.798 61.3897 317.195 71.0942 317.195 84.4545C317.195 97.9679 326.798 107.768 340.065 107.768C347.779 107.768 354.566 104.476 358.694 98.8293C358.881 98.5611 359.007 98.2552 359.062 97.9333C359.116 97.6116 359.098 97.2817 359.009 96.9674C358.921 96.653 358.765 96.3619 358.55 96.1147C358.335 95.8675 358.067 95.6702 357.768 95.537L356.187 94.8097C355.613 94.5771 354.98 94.5295 354.378 94.6737C353.776 94.8181 353.235 95.1469 352.832 95.6137C351.262 97.3888 349.318 98.8006 347.14 99.7497C344.961 100.699 342.598 101.162 340.219 101.107C331.58 101.107 325.563 95.9582 324.368 87.651C324.368 87.5935 324.426 87.5553 324.503 87.5553H360.255C360.736 87.5558 361.197 87.3736 361.545 87.0457C361.892 86.718 362.102 86.2701 362.126 85.7943L362.164 84.4545C362.126 70.6347 353.255 61.3897 340.065 61.3897ZM340.065 68.0507C348.396 68.0507 354.123 73.123 355.165 81.3154C355.184 81.3728 355.125 81.4303 355.087 81.4303H324.561C324.503 81.4303 324.465 81.3728 324.483 81.3154C325.738 72.9891 331.523 68.0507 340.065 68.0507ZM396.876 61.3897C389.952 61.3897 383.609 64.4905 380.061 69.4097C380.021 69.4671 379.868 69.4481 379.868 69.3524V64.6628C379.862 64.0533 379.618 63.47 379.185 63.0372C378.753 62.6045 378.166 62.3567 377.553 62.3467H375.259C374.636 62.3467 374.039 62.5895 373.594 63.0228C373.152 63.4561 372.897 64.0451 372.886 64.6628V125.684C372.886 126.947 373.948 128 375.259 128H377.553C378.806 128 379.868 126.947 379.868 125.684V99.863C379.868 99.7863 380.021 99.7481 380.061 99.8246C383.666 104.763 389.896 107.749 396.876 107.749C409.835 107.749 419.611 97.8147 419.611 84.6267C419.611 71.3813 409.835 61.3897 396.876 61.3897ZM390.724 68.9694C393.242 68.0737 395.94 67.7998 398.586 68.1711C401.235 68.5425 403.751 69.548 405.918 71.1008C408.088 72.6535 409.842 74.7069 411.031 77.0836C412.221 79.4601 412.809 82.0886 412.747 84.7416C412.78 86.8871 412.381 89.0175 411.574 91.0079C410.767 92.9984 409.569 94.8089 408.046 96.3332C406.525 97.8576 404.712 99.065 402.714 99.8848C400.718 100.705 398.575 101.12 396.413 101.107C394.072 101.136 391.754 100.667 389.613 99.7314C387.471 98.7959 385.557 97.4155 383.997 95.6832C382.438 93.951 381.272 91.9071 380.576 89.6896C379.881 87.4719 379.671 85.1319 379.964 82.8275C380.172 79.7191 381.305 76.742 383.221 74.2747C385.138 71.8072 387.748 69.9606 390.724 68.9694ZM436.967 44.986H435.559C434.832 44.9859 434.133 45.2717 433.617 45.7809C433.1 46.2901 432.806 46.9814 432.803 47.704V62.2127C432.803 62.2702 432.745 62.3277 432.706 62.3277H427.557C426.826 62.3277 426.123 62.616 425.608 63.1293C425.09 63.6425 424.799 64.3388 424.799 65.0648V65.7155C424.799 67.2276 426.034 68.4335 427.557 68.4335H432.706C432.745 68.4335 432.803 68.4719 432.803 68.5294V104.112C432.803 105.605 434.036 106.849 435.559 106.849H436.967C437.697 106.844 438.395 106.554 438.912 106.042C439.428 105.53 439.719 104.837 439.725 104.112V68.5294C439.725 68.4719 439.763 68.4335 439.841 68.4335H447.033C447.762 68.4337 448.459 68.1478 448.977 67.6386C449.494 67.1294 449.785 66.4381 449.791 65.7155V65.0648C449.791 64.3388 449.501 63.6425 448.984 63.1293C448.467 62.616 447.765 62.3277 447.033 62.3277H439.841C439.763 62.3277 439.725 62.2894 439.725 62.2127V47.704C439.719 46.9814 439.428 46.2901 438.911 45.7809C438.393 45.2717 437.696 44.9859 436.967 44.986ZM461.575 42C458.738 42 456.483 44.1055 456.483 46.7852C456.483 49.3501 458.777 51.4556 461.575 51.4556C464.544 51.4556 466.799 49.4458 466.799 46.7852C466.781 44.0481 464.544 42 461.575 42ZM461.015 106.83H462.152C462.926 106.825 463.668 106.516 464.212 105.971C464.759 105.426 465.065 104.689 465.065 103.921V65.237C465.065 64.4687 464.759 63.7317 464.212 63.1866C463.668 62.6415 462.926 62.3326 462.152 62.3277H461.015C460.629 62.3251 460.247 62.3987 459.89 62.5439C459.533 62.6892 459.208 62.9035 458.937 63.1741C458.664 63.4447 458.447 63.7666 458.301 64.1207C458.156 64.4747 458.081 64.8542 458.083 65.237V103.921C458.083 105.529 459.394 106.83 461.015 106.83ZM499.525 61.3897C485.949 61.3897 476.114 71.0942 476.114 84.4545C476.114 96.8195 484.772 106.333 496.709 107.615C512.078 109.299 525.077 95.6137 522.723 80.4923C520.969 69.1992 511.75 61.3897 499.525 61.3897ZM499.525 101.088C490.019 101.088 483.095 94.0823 483.095 84.4353C483.095 75.6496 489.035 69.0651 497.462 68.1464C499.835 67.9074 502.234 68.1716 504.498 68.9217C506.762 69.6719 508.841 70.8907 510.593 72.4976C512.347 74.1045 513.737 76.0628 514.672 78.2428C515.606 80.423 516.063 82.775 516.012 85.1436C515.991 87.2666 515.544 89.3642 514.703 91.3161C513.861 93.2679 512.639 95.0353 511.107 96.5169C509.575 97.9986 507.763 99.1651 505.775 99.9495C503.788 100.734 501.664 101.121 499.525 101.088ZM308.285 62.3277H304.795C304.25 62.3242 303.715 62.4513 303.23 62.698C302.748 62.9445 302.331 63.3035 302.017 63.7441L292.955 77.7744C292.915 77.8318 292.82 77.8318 292.78 77.7744L283.621 63.7441C283.308 63.3022 282.893 62.9425 282.408 62.6958C281.925 62.449 281.388 62.3227 280.843 62.3277H277.353C277.042 62.3267 276.736 62.412 276.471 62.5738C276.205 62.7357 275.991 62.9677 275.85 63.2438C275.71 63.5201 275.65 63.8295 275.677 64.1377C275.705 64.4458 275.817 64.7402 276.003 64.9882L288.634 83.6315C288.672 83.6505 288.672 83.708 288.634 83.7462L274.114 104.131C273.93 104.384 273.821 104.682 273.796 104.993C273.77 105.303 273.832 105.615 273.974 105.893C274.114 106.171 274.329 106.406 274.597 106.571C274.863 106.736 275.169 106.826 275.482 106.83H278.781C279.317 106.832 279.847 106.708 280.326 106.468C280.805 106.229 281.22 105.881 281.537 105.452L292.78 89.5651C292.82 89.5269 292.915 89.5269 292.955 89.5651L304.005 105.414C304.318 105.854 304.733 106.213 305.218 106.46C305.7 106.707 306.238 106.834 306.781 106.83H310.174C311.564 106.83 312.355 105.299 311.564 104.151L297.101 83.6505V83.5166L309.653 64.9882C309.841 64.739 309.954 64.4427 309.981 64.1329C310.007 63.823 309.947 63.5121 309.803 63.2352C309.661 62.9584 309.444 62.7265 309.174 62.5661C308.906 62.4058 308.599 62.3231 308.285 62.3277Z" fill="#fff"/>
</svg>
