<svg xmlns="http://www.w3.org/2000/svg" xmlns:xlink="http://www.w3.org/1999/xlink" width="150" viewBox="0 0 360 113.07"><defs><style>.cls-1{fill:#2a1b3f;}.cls-2,.cls-3{opacity:0.74;}.cls-2{fill:url(#linear-gradient);}.cls-3{fill:url(#linear-gradient-2);}.cls-4{fill:url(#linear-gradient-3);}</style><linearGradient id="linear-gradient" x1="13.08" y1="57.85" x2="45.59" y2="31.4" gradientUnits="userSpaceOnUse"><stop offset="0.33" stop-color="#000016"/><stop offset="0.86" stop-color="#2c3b4a" stop-opacity="0"/></linearGradient><linearGradient id="linear-gradient-2" x1="-3.36" y1="92.43" x2="55.27" y2="84.78" gradientUnits="userSpaceOnUse"><stop offset="0.14" stop-color="#2c3b4a" stop-opacity="0"/><stop offset="0.67" stop-color="#000008"/></linearGradient><linearGradient id="linear-gradient-3" x1="26.7" y1="113.07" x2="26.7" y2="18.45" gradientUnits="userSpaceOnUse"><stop offset="0.15" stop-color="#2a1b3f"/><stop offset="0.31" stop-color="#482482"/><stop offset="0.44" stop-color="#5d2ab2"/><stop offset="0.5" stop-color="#652cc4"/><stop offset="0.87" stop-color="#2a1b3f"/></linearGradient></defs><path class="cls-1" d="M87.26,20h0a17.86,17.86,0,0,0-11,3.9V20H62.12V66.76H76.28V38.33c2.93-4.26,7.2-5.61,13-4.13l.81.21,2.3-13.9-.73-.14A21.65,21.65,0,0,0,87.26,20Z"/><path class="cls-1" d="M127.3,22.78c-2.15-1.53-5.2-2.47-9.11-2.8a21.48,21.48,0,0,0-16,6,24.16,24.16,0,0,0-7.41,17.43,22.88,22.88,0,0,0,23.39,23.39,17,17,0,0,0,9.15-2.93v2.93h13.78V20.08L127.3,20Zm-9.15,32c-6.37,0-10.81-4.64-10.81-11.28s4.5-11.37,10.72-11.37S129,36.88,129,43.46,124.42,54.74,118.15,54.74Z"/><polygon class="cls-1" points="171.17 46.85 161.04 19.98 146.48 19.98 165.36 66.76 177.25 66.76 196.04 19.98 181.48 19.98 171.17 46.85"/><polygon class="cls-1" points="242.96 44.69 237.14 19.89 226.57 19.89 220.3 44.35 213.95 19.89 200.39 19.89 212.95 66.76 225.43 66.76 231.62 45.97 237.9 66.76 250.38 66.76 262.84 19.89 249.37 19.89 242.96 44.69"/><path class="cls-1" d="M288.75,20c-13.56,0-23.39,9.84-23.39,23.39s9.83,23.39,23.39,23.39c8.13,0,14.38-2.29,19.08-7l.55-.55L300.13,51l-.53.4a18,18,0,0,1-10.85,3.46c-3.73,0-7.71-2.1-8.56-6.14h31V43.37C311.21,29.38,302.18,20,288.75,20Zm0,11.93a9.47,9.47,0,0,1,6.67,2.57,5.66,5.66,0,0,1,1.63,3.58h-16.6a5.65,5.65,0,0,1,1.62-3.58A9.49,9.49,0,0,1,288.75,31.91Z"/><rect class="cls-1" x="320.17" width="14.24" height="66.52"/><rect class="cls-1" x="345.65" width="14.24" height="66.52"/><path class="cls-1" d="M36.63,84.38A11.6,11.6,0,0,1,33,96.69c-.18.16-.37.3-.56.44l-.29.22c-.19.13-.39.25-.59.37l-.31.19c-.2.12-.41.22-.61.33l-.34.16-.63.26-.37.14-.63.2-.44.11-.59.14-.59.09-.48.06c-.36,0-.73.06-1.1.06s-.83,0-1.24-.07l-.19,0a8.68,8.68,0,0,1-1-.17l-.19,0a8,8,0,0,1-1-.27l-.21-.07c-.31-.11-.62-.23-.92-.37l-.23-.11c-.29-.13-.57-.28-.84-.43l-.25-.16a9,9,0,0,1-.76-.5L18.35,97c-.24-.18-.47-.37-.7-.57l-.23-.22c-.23-.21-.44-.44-.65-.67a11.59,11.59,0,0,1-3-7.82,11.77,11.77,0,0,1,4.79-9.44l1.53-1.12L9.3,68.31l-1,.87A25.36,25.36,0,0,0,.2,87.76a25.08,25.08,0,0,0,.33,4.09l.39,2a25,25,0,0,0,13.55,16.67,20.08,20.08,0,0,0,9.29.85,17.81,17.81,0,0,0,7.81-3c6.49-4.47,9.54-13.48,6.69-20.94A15.49,15.49,0,0,0,36.63,84.38Z"/><path class="cls-1" d="M52.43,19.72l-1.11,0c-2,0-3.88,0-5.78-.08l-4.87-.07H39.33c-4.23,0-8.49-.12-12.62.77C20,21.75,14.39,25.87,12.36,32.67A17.42,17.42,0,0,0,16,49.22a11.64,11.64,0,1,1,6.63,5.94c4.71,3.51,9.9,6.41,14.66,9.84.48.35,1,.7,1.44,1.07A25.06,25.06,0,0,0,49,33.14h3.46Z"/><path class="cls-2" d="M52.43,19.72l-1.11,0c-2,0-3.88,0-5.78-.08l-4.87-.07H39.33c-4.23,0-8.49-.12-12.62.77C20,21.75,14.39,25.87,12.36,32.67A17.42,17.42,0,0,0,16,49.22a11.64,11.64,0,1,1,6.63,5.94c4.71,3.51,9.9,6.41,14.66,9.84.48.35,1,.7,1.44,1.07A25.06,25.06,0,0,0,49,33.14h3.46Z"/><path class="cls-3" d="M36.63,84.38A11.6,11.6,0,0,1,33,96.69c-.18.16-.37.3-.56.44l-.29.22c-.19.13-.39.25-.59.37l-.31.19c-.2.12-.41.22-.61.33l-.34.16-.63.26-.37.14-.63.2-.44.11-.59.14-.59.09-.48.06c-.36,0-.73.06-1.1.06s-.83,0-1.24-.07l-.19,0a8.68,8.68,0,0,1-1-.17l-.19,0a8,8,0,0,1-1-.27l-.21-.07c-.31-.11-.62-.23-.92-.37l-.23-.11c-.29-.13-.57-.28-.84-.43l-.25-.16a9,9,0,0,1-.76-.5L18.35,97c-.24-.18-.47-.37-.7-.57l-.23-.22c-.23-.21-.44-.44-.65-.67a11.59,11.59,0,0,1-3-7.82,11.77,11.77,0,0,1,4.79-9.44l1.53-1.12L9.3,68.31l-1,.87A25.36,25.36,0,0,0,.2,87.76a25.08,25.08,0,0,0,.33,4.09l.39,2a25,25,0,0,0,13.55,16.67,20.08,20.08,0,0,0,9.29.85,17.81,17.81,0,0,0,7.81-3c6.49-4.47,9.54-13.48,6.69-20.94A15.49,15.49,0,0,0,36.63,84.38Z"/><path class="cls-4" d="M22.33,18.93A24.44,24.44,0,0,0,1.17,46.26,26.59,26.59,0,0,0,10.93,63.9c3.86,3,7.88,5.79,11.87,8.63s8,5.5,11.37,8.89l.1.11a17.65,17.65,0,0,1,4,5.91c2.85,7.46-.2,16.47-6.69,20.94a17.81,17.81,0,0,1-7.81,3,19.51,19.51,0,0,1-9.84-1.06,25.25,25.25,0,0,0,32.3-8.22,25,25,0,0,0,3.1-22.87,22.54,22.54,0,0,0-1.62-3.53C45.22,71.33,41.37,67.92,37.31,65,30.52,60.11,22.85,56.29,17,50.25a17.54,17.54,0,0,1-4.6-17.58c2-6.8,7.59-10.92,14.35-12.36,4.13-.89,8.39-.77,12.62-.77,4.4,0,8.58.17,13.1.17-5-.59-10-1-15-1.14a97.61,97.61,0,0,0-14.81.33Z"/></svg>
