<svg xmlns="http://www.w3.org/2000/svg" width="700" height="360" viewBox="360 20 700 360" fill="none">
<path d="M597.763 111.097C605.986 126.478 610.156 144.406 610.156 164.382C610.156 195.61 599.214 220.516 576.705 240.525C571.957 244.745 566.866 248.621 561.529 252.234C565.51 254.35 569.428 256.558 573.256 258.881C577.244 255.977 581.103 252.906 584.794 249.625C610.053 227.172 622.331 199.289 622.331 164.382C622.331 112.662 596.705 83.1596 575.208 67.5175C549.236 48.6194 518.691 41.9141 500.426 41.9141V54.0894C516.864 54.0894 544.436 60.1844 568.044 77.3624C580.732 86.5944 590.73 97.9445 597.763 111.097Z" fill="#D7F05A"></path>
<path d="M473.75 296.145C446.696 310.206 425.99 326.99 425.99 355.631H438.165C438.165 341.72 444.584 330.34 458.366 319.821C466.588 313.545 476.829 307.991 488.091 302.592C487.636 302.389 487.182 302.186 486.723 301.981C482.478 300.086 478.138 298.148 473.75 296.145Z" fill="#D7F05A"></path>
<path d="M507.463 262.004C484.286 251.492 460.319 240.622 442.745 225.524C423.366 208.875 414.34 189.493 414.34 164.53C414.34 131.012 430.691 110.436 444.409 99.0762C460.207 85.9937 481.655 77.865 500.392 77.8592C519.128 77.865 540.577 85.9937 556.375 99.0762C570.092 110.436 586.443 131.012 586.443 164.53C586.443 189.493 577.417 208.875 558.038 225.524C551.723 230.95 544.58 235.827 536.947 240.34C541.369 242.332 545.782 244.37 550.154 246.483C555.743 242.857 561.06 238.98 565.972 234.76C587.939 215.887 598.618 192.914 598.618 164.53C598.618 126.28 579.869 102.724 564.14 89.6989C545.993 74.6708 522.173 65.6953 500.412 65.6841V65.6836C500.405 65.6836 500.398 65.6839 500.391 65.6839C500.385 65.6839 500.378 65.6836 500.371 65.6836V65.6841C460.75 65.7057 402.165 97.122 402.165 164.53C402.165 192.914 412.844 215.887 434.811 234.76C453.705 250.991 478.478 262.227 502.435 273.092C524.732 283.205 545.794 292.756 561.481 305.692C578.435 319.671 586.331 335.539 586.331 355.63H598.506C598.506 303.294 552.223 282.303 507.463 262.004Z" fill="#D7F05A"></path>
<path d="M588.879 282.064C569.509 265.375 544.285 254.285 519.89 243.56C498.064 233.964 477.449 224.901 462.205 212.549C445.803 199.261 438.165 184.002 438.165 164.53C438.165 139.541 449.906 124.658 459.755 116.573C471.149 107.219 486.339 101.634 500.392 101.629C514.445 101.634 529.634 107.219 541.028 116.573C550.877 124.658 562.618 139.541 562.618 164.53C562.618 184.002 554.979 199.261 538.578 212.549C530.883 218.784 521.818 224.179 511.922 229.229C515.637 230.908 519.487 232.613 523.47 234.365C524.323 234.74 525.177 235.115 526.031 235.491C533.311 231.393 540.111 226.977 546.243 222.01C565.454 206.444 574.793 187.642 574.793 164.53C574.793 112.769 531.312 89.4741 500.412 89.4536V89.4531C500.405 89.4531 500.398 89.4534 500.392 89.4534C500.385 89.4534 500.378 89.4531 500.371 89.4531V89.4536C469.471 89.4741 425.99 112.769 425.99 164.53C425.99 187.642 435.328 206.444 454.54 222.01C471.054 235.389 492.395 244.772 514.99 254.706C538.565 265.07 562.942 275.788 580.931 291.288C600.87 308.467 610.156 328.913 610.156 355.63H622.331C622.331 325.523 611.389 301.459 588.879 282.064Z" fill="#D7F05A"></path>
<path d="M496.242 281.688C470.709 270.292 444.307 258.507 424.078 240.525C401.569 220.516 390.627 195.609 390.627 164.382C390.627 144.406 394.797 126.478 403.021 111.097C410.052 97.9445 420.051 86.5947 432.739 77.3624C456.347 60.1844 483.919 54.0894 500.357 54.0894V41.9141C482.092 41.9141 451.548 48.6194 425.575 67.5176C404.078 83.1597 378.452 112.662 378.452 164.382C378.452 199.289 390.731 227.172 415.989 249.625C437.626 268.858 464.902 281.033 491.28 292.807C510.783 301.512 529.204 309.734 542.418 319.819C556.199 330.338 562.619 341.718 562.619 355.629H574.794C574.794 316.75 536.638 299.719 496.242 281.688Z" fill="#D7F05A"></path>
<path d="M439.302 305.692C446.004 300.166 453.694 295.259 462.035 290.66C457.709 288.574 453.373 286.404 449.068 284.125C422.466 300.176 402.277 321.067 402.277 355.631H414.452C414.452 335.54 422.348 319.671 439.302 305.692Z" fill="#D7F05A"></path>
<path d="M419.851 291.286C425.438 286.473 431.642 282.121 438.245 278.097C434.366 275.821 430.541 273.439 426.804 270.93C421.563 274.368 416.561 278.05 411.904 282.063C389.394 301.458 378.452 325.522 378.452 355.629H390.627C390.627 328.911 399.913 308.465 419.851 291.286Z" fill="#D7F05A"></path>
<path d="M694.571 193.499H669.898L666.185 204.641H653.008L674.674 142.738H689.796L711.551 204.641H698.286L694.571 193.499ZM690.769 182.091L682.28 156.8L673.79 182.091H690.769Z" fill="white"></path>
<path d="M727.998 142.738V204.641H715.793V142.738H727.998Z" fill="white"></path>
<path d="M770.267 154.412V169.092H794.321V180.764H770.267V204.641H758.063V142.738H795.029V154.412H770.267Z" fill="white"></path>
<path d="M799.36 182.534C799.36 169.357 809.707 159.188 822.707 159.188C835.706 159.188 846.14 169.357 846.14 182.534C846.14 195.711 835.706 205.88 822.707 205.88C809.707 205.88 799.36 195.711 799.36 182.534ZM834.732 182.534C834.732 175.371 829.516 170.331 822.707 170.331C815.985 170.331 810.768 175.371 810.768 182.534C810.768 189.697 815.985 194.738 822.707 194.738C829.516 194.738 834.732 189.697 834.732 182.534Z" fill="white"></path>
<path d="M877.268 159.539V172.274C871.342 171.566 863.827 174.219 863.827 183.505V204.64H852.419V160.423H863.827V168.029C866.126 162.015 871.696 159.539 877.268 159.539Z" fill="white"></path>
<path d="M667.156 217.906V279.809H654.954V217.906H667.156Z" fill="white"></path>
<path d="M717.65 252.657V279.806H706.242V254.073C706.242 248.059 702.617 244.964 697.487 244.964C691.916 244.964 687.76 248.236 687.76 255.929V279.806H676.352V235.59H687.76V240.542C690.412 236.562 695.011 234.352 700.936 234.352C710.311 234.352 717.65 240.896 717.65 252.657Z" fill="white"></path>
<path d="M770.531 217.906V279.809H759.124V274.592C755.94 278.659 751.253 281.047 744.798 281.047C732.948 281.047 723.22 270.877 723.22 257.701C723.22 244.524 732.948 234.354 744.798 234.354C751.253 234.354 755.94 236.742 759.124 240.811V217.906H770.531ZM759.124 257.701C759.124 250.272 753.906 245.232 746.92 245.232C739.846 245.232 734.628 250.272 734.628 257.701C734.628 265.129 739.846 270.17 746.92 270.17C753.906 270.17 759.124 265.129 759.124 257.701Z" fill="white"></path>
<path d="M777.87 223.298C777.87 219.496 781.054 216.223 784.856 216.223C788.748 216.223 791.931 219.496 791.931 223.298C791.931 227.101 788.748 230.284 784.856 230.284C781.054 230.284 777.87 227.101 777.87 223.298ZM779.198 235.59H790.605V279.806H779.198V235.59Z" fill="white"></path>
<path d="M840.922 235.59L824.12 279.806H811.12L794.319 235.59H806.875L817.575 266.542L828.365 235.59H840.922Z" fill="white"></path>
<path d="M843.308 223.298C843.308 219.496 846.491 216.223 850.294 216.223C854.185 216.223 857.369 219.496 857.369 223.298C857.369 227.101 854.185 230.284 850.294 230.284C846.491 230.284 843.308 227.101 843.308 223.298ZM844.635 235.59H856.042V279.806H844.635V235.59Z" fill="white"></path>
<path d="M909.631 217.906V279.809H898.223V274.592C895.04 278.659 890.353 281.047 883.897 281.047C872.048 281.047 862.32 270.877 862.32 257.701C862.32 244.524 872.048 234.354 883.897 234.354C890.353 234.354 895.04 236.742 898.223 240.811V217.906H909.631ZM898.223 257.701C898.223 250.272 893.006 245.232 886.02 245.232C878.946 245.232 873.728 250.272 873.728 257.701C873.728 265.129 878.946 270.17 886.02 270.17C893.006 270.17 898.223 265.129 898.223 257.701Z" fill="white"></path>
<path d="M958.886 235.59V279.806H947.478V274.855C944.825 278.834 940.227 281.045 934.302 281.045C924.927 281.045 917.588 274.501 917.588 262.739V235.59H928.996V261.325C928.996 267.337 932.622 270.433 937.75 270.433C943.322 270.433 947.478 267.16 947.478 259.467V235.59H958.886Z" fill="white"></path>
<path d="M1012.56 235.59V279.806H1001.16V274.589C997.972 278.568 993.197 281.044 986.742 281.044C974.981 281.044 965.252 270.875 965.252 257.699C965.252 244.521 974.981 234.352 986.742 234.352C993.197 234.352 997.972 236.828 1001.16 240.808V235.59H1012.56ZM1001.16 257.699C1001.16 250.27 995.939 245.229 988.864 245.229C981.877 245.229 976.66 250.27 976.66 257.699C976.66 265.126 981.877 270.168 988.864 270.168C995.939 270.168 1001.16 265.126 1001.16 257.699Z" fill="white"></path>
<path d="M1021.14 215.25H1032.55V279.806H1021.14V215.25Z" fill="white"></path>
<path d="M676.442 333.484H667.156V354.973H654.954V293.07H679.715C691.123 293.07 700.32 302.267 700.32 313.587C700.32 321.369 695.456 328.355 688.381 331.627L702.088 354.973H688.912L676.442 333.484ZM667.156 322.784H679.715C684.313 322.784 688.115 318.716 688.115 313.587C688.115 308.457 684.313 304.478 679.715 304.478H667.156V322.784Z" fill="white"></path>
<path d="M705.623 298.462C705.623 294.66 708.807 291.387 712.61 291.387C716.501 291.387 719.684 294.66 719.684 298.462C719.684 302.265 716.501 305.448 712.61 305.448C708.807 305.448 705.623 302.265 705.623 298.462ZM706.95 310.754H718.358V354.97H706.95V310.754Z" fill="white"></path>
<path d="M772.036 310.758V352.852C772.036 367.355 760.628 373.9 748.955 373.9C739.492 373.9 731.887 370.274 727.996 363.11L737.724 357.539C739.581 360.988 742.5 363.73 749.309 363.73C756.472 363.73 760.894 359.838 760.894 352.852V348.076C757.798 352.233 753.022 354.797 746.744 354.797C734.186 354.797 724.725 344.627 724.725 332.158C724.725 319.778 734.186 309.52 746.744 309.52C753.022 309.52 757.798 312.084 760.894 316.24V310.758H772.036ZM760.894 332.158C760.894 325.173 755.676 320.132 748.512 320.132C741.349 320.132 736.133 325.173 736.133 332.158C736.133 339.233 741.349 344.274 748.512 344.274C755.676 344.274 760.894 339.233 760.894 332.158Z" fill="white"></path>
<path d="M821.91 327.824V354.973H810.502V329.239C810.502 323.226 806.876 320.131 801.748 320.131C796.176 320.131 792.02 323.403 792.02 331.096V354.973H780.612V293.07H792.02V315.709C794.673 311.729 799.272 309.518 805.196 309.518C814.57 309.518 821.91 316.063 821.91 327.824Z" fill="white"></path>
<path d="M845.167 321.722V340.115C845.167 344.891 848.616 344.979 855.159 344.625V354.972C839.153 356.741 833.759 352.054 833.759 340.115V321.722H826.065V310.756H833.759V301.824L845.167 298.375V310.756H855.159V321.722H845.167Z" fill="white"></path>
<path d="M893.804 342.064C893.804 351.614 885.492 356.212 876.029 356.212C867.186 356.212 860.641 352.498 857.458 345.689L867.363 340.117C868.6 343.743 871.607 345.866 876.029 345.866C879.654 345.866 882.13 344.627 882.13 342.064C882.13 335.607 859.314 339.145 859.314 323.581C859.314 314.561 867.009 309.52 876.118 309.52C883.28 309.52 889.471 312.793 892.919 318.894L883.192 324.199C881.865 321.37 879.388 319.689 876.118 319.689C873.287 319.689 870.988 320.927 870.988 323.315C870.988 329.859 893.804 325.792 893.804 342.064Z" fill="white"></path>
</svg>
