<svg xmlns="http://www.w3.org/2000/svg" viewBox="80 50 588 202" width="150"><defs><style>.cls-1{fill:#fff;}.cls-2{fill:none;stroke:#eb008b;stroke-miterlimit:10;stroke-width:11px;}.cls-3{fill:#000c34;}.cls-4{fill:#1062fb;}.cls-5{fill:#2eb785;}.cls-6{fill:#ffc420;}</style></defs><g id="Ebene_2" data-name="Ebene 2"><rect class="cls-1" width="748" height="302"/><rect class="cls-2" x="-3884.09" y="-601.33" width="5764.95" height="3254.95"/><path class="cls-3" d="M329.82,145.67l42.47-45.35H392.6L351,145.81q22.08,27.76,44.47,55.54H375.29L340.12,158l-10.3,10.9v32.44h-16v-101h16Z"/><path class="cls-3" d="M439,101.75v99.6h-16v-80.8l-23.45,20.24V122.85l24-21.1Z"/><path class="cls-3" d="M482,115.38l-3.14,23.83c5-6.46,13.29-8.47,20.44-8.47,18.45,0,33,13.92,33,35.59,0,23.25-16.73,36.45-36.6,36.45-24.45,0-34.18-16.65-35.75-28.41l16.16-2.87c.57,5.74,4.72,17.79,19.59,17.79,13.58,0,20-11.48,20-23s-6.72-22.53-20-22.53c-10.3,0-14.59,5.6-17.88,11.19l-15.3-3.15,6.3-50.09h53.48v13.63Z"/><path class="cls-3" d="M544.19,140.5V128.73h12.44V107.78h15.44v20.95h15V140.5h-15v41.19c0,5.74,1.72,7.46,6.72,7.46,2.15,0,4.44-.29,6.87-.29v12.49l-9.15.57h-1.86c-13.59,0-18-7.32-18-21.24V140.5Z"/><path class="cls-4" d="M185.63,120.13l-22.17,38.53a13.11,13.11,0,0,1-17.7,5v0l-16.05-9.3h0l-.18-.1.08,0a1.2,1.2,0,0,1-.34-1.55,1.15,1.15,0,0,1,.82-.56s0,0,.05,0a13.14,13.14,0,0,0,10.59-6.58l2.8-4.87,19.37-33.66a13.15,13.15,0,1,1,22.76,13.19Z"/><path class="cls-5" d="M227.47,120.18l-52.66,91.54a13.15,13.15,0,1,1-22.76-13.19L204.71,107a13.15,13.15,0,1,1,22.76,13.19Z"/><path class="cls-6" d="M269.31,120.23,226.1,195.34a13.15,13.15,0,1,1-22.76-13.19L246.55,107a13.15,13.15,0,1,1,22.76,13.19Z"/></g></svg>
