<?xml version="1.0" encoding="UTF-8"?>
<svg id="Logo" xmlns="http://www.w3.org/2000/svg" viewBox="0 0 423.3 137.7" width="62">
  <defs>
    <style>
      .cls-1 {
        fill: #fff;
      }
    </style>
  </defs>
  <polygon class="cls-1" points="72.3 135.4 21.1 69.9 21.1 135.4 0 135.4 0 1.2 21.1 1.2 21.1 64.7 70.4 1.2 95.1 1.2 43.7 66.3 98.8 135.4 72.3 135.4"/>
  <path class="cls-1" d="M104.4,135.4V38.8h19.9v96.6h-19.9ZM114.4,23.6c-6.7,0-11.9-5.1-11.9-11.7S107.7,0,114.4,0s11.7,5.1,11.7,11.9-5.1,11.7-11.7,11.7Z"/>
  <path class="cls-1" d="M201.3,135.4v-55.3c0-14.7-9.8-25.3-23.2-25.3s-23.4,10.4-23.4,25.3v55.3h-19.9V38.8h14.7l4.3,11.9h.7l1-1.3c3.2-4.5,13-12.9,26.9-12.9,23.1,0,38.6,16.9,38.6,42.1v56.8h-19.7Z"/>
  <path class="cls-1" d="M272.9,137.7c-24.9,0-44.4-22.2-44.4-50.6s19.5-50.6,44.4-50.6,25.2,9.1,27.1,12.3c.7,1.1,1.2,2,1.2,2h1.1V1.2h19.9v134.2h-14.7l-4.2-12h-.8l-.9,1.3c-2.5,3.4-13.1,13.1-28.7,13.1ZM275.2,54.8c-15.4,0-27.1,13.9-27.1,32.3s11.6,32.3,27.1,32.3,27.1-13.9,27.1-32.3-11.6-32.3-27.1-32.3Z"/>
  <path class="cls-1" d="M377.5,137.7c-26.9,0-47.9-22.2-47.9-50.6s21.4-50.6,47.7-50.6,46,21.3,46,48.5-.4,7.2-1,9.8h-73l.2.8c2.7,15.1,13.4,24.4,27.8,24.4s18.6-6.3,21.5-10.3h20.7c-5.9,14.1-21.9,28-42,28ZM377.3,54.2c-13.9,0-25.1,10-27.8,25l-.2.8h54.8v-.8c-2.5-15-13.2-25-26.8-25Z"/>
</svg>
