<svg version="1.1" id="Layer_1" xmlns="http://www.w3.org/2000/svg" xmlns:xlink="http://www.w3.org/1999/xlink" x="0px" y="0px"
	 width="200" viewBox="0 0 1771 435"  xml:space="preserve">
<path fill="#FDC008" opacity="1.000000" stroke="none"
	d="
M366.544189,32.350960
	C428.097839,38.010826 479.908325,92.541695 488.443268,147.421310
	C490.707245,161.978577 491.817047,176.585236 489.188599,191.193787
	C488.546509,194.762650 490.352783,195.778076 492.855621,197.141647
	C527.956604,216.264847 547.891968,245.813889 552.034607,285.471405
	C558.443359,346.822632 506.700928,404.487762 445.030212,404.934418
	C404.366180,405.228943 363.698273,405.030212 323.032196,404.984650
	C309.013947,404.968964 301.215210,397.004486 301.191284,382.829712
	C301.152191,359.663544 301.099792,336.496826 301.247070,313.331543
	C301.270325,309.678070 300.332367,307.350281 297.260559,305.055695
	C268.423676,283.515381 239.719849,261.796448 211.028687,240.061691
	C203.466263,234.332825 200.563919,226.350861 202.984543,218.079636
	C205.413864,209.778656 211.048401,204.804382 219.585037,203.406540
	C225.708466,202.403839 231.002594,204.517258 235.868988,208.210159
	C255.913422,223.420990 276.012665,238.559601 296.095947,253.719162
	C297.503632,254.781738 298.945465,255.799088 301.169861,257.418884
	C301.169861,254.924210 301.169861,253.338974 301.169861,251.753754
	C301.169952,236.420609 301.158142,221.087448 301.173615,205.754318
	C301.187653,191.844604 309.109009,182.746185 321.244446,182.658829
	C333.514221,182.570526 341.608337,191.796814 341.618195,205.969055
	C341.638123,234.635361 341.624786,263.301697 341.625183,291.968018
	C341.625214,293.937653 341.625153,295.907288 341.625153,298.737854
	C350.561340,296.543304 358.887726,294.521729 367.202057,292.451874
	C385.628601,287.864594 404.041443,283.222260 422.474701,278.662231
	C434.922028,275.583038 445.788727,281.632690 448.567474,293.084564
	C451.298248,304.338684 444.702454,314.686829 432.465698,317.784180
	C404.206726,324.936951 375.937073,332.054016 347.593201,338.858368
	C342.755463,340.019745 341.160706,341.977997 341.517395,346.841095
	C341.964386,352.935089 341.624939,359.086761 341.624939,365.442871
	C343.440399,365.582703 344.732880,365.768646 346.025452,365.769165
	C377.525055,365.781433 409.026306,365.974121 440.523834,365.716766
	C475.933014,365.427460 504.602875,341.712250 511.403961,307.582733
	C517.109497,278.950836 504.770996,251.042313 478.921661,235.332947
	C471.555542,230.856369 463.540527,227.397369 455.663605,223.823318
	C444.285828,218.660751 442.760315,215.637085 446.174194,203.688553
	C457.526031,163.957245 448.938721,128.838470 419.898010,99.723824
	C375.659454,55.372627 300.048462,63.831520 265.960541,116.317505
	C259.711212,125.939758 253.938202,135.871368 247.780914,145.928711
	C238.223267,142.445877 228.992737,138.708496 219.529221,135.705322
	C193.450546,127.429451 170.075104,132.967178 149.802231,150.923141
	C135.409531,163.670959 128.017166,180.140610 126.937988,199.328506
	C126.667503,204.137589 126.956375,208.986542 127.145340,213.811020
	C127.421036,220.850067 125.839844,223.394440 119.080147,225.703674
	C104.831406,230.571243 91.668518,237.197098 82.074089,249.260620
	C64.965691,270.771790 59.925934,294.704285 70.172363,320.508911
	C80.599297,346.768097 100.681152,361.500366 128.682526,365.035828
	C135.590591,365.908051 142.651352,365.722076 149.643143,365.753815
	C179.638733,365.889984 209.635712,365.814545 239.630035,366.070557
	C247.902115,366.141113 253.819473,370.621307 257.023926,378.199615
	C260.072693,385.409729 258.954102,392.292786 254.057327,398.380035
	C250.419495,402.902313 245.711243,405.086334 239.693863,405.064392
	C205.028091,404.937866 170.361588,405.016998 135.695343,404.999420
	C86.471405,404.974487 44.368286,373.451050 30.013083,326.188232
	C25.792751,312.293304 23.042290,298.011261 25.338526,283.820221
	C31.272532,247.147217 48.464481,217.346573 81.939651,198.818954
	C86.121178,196.504608 87.631508,193.790344 88.119827,189.151932
	C94.107368,132.278671 147.056442,88.298874 204.155182,92.742104
	C211.597153,93.321220 219.024323,94.623566 226.328186,96.195648
	C229.476974,96.873375 230.985870,96.393303 232.773697,93.750351
	C249.382812,69.197136 271.076508,50.911961 299.102051,40.550014
	C320.784637,32.533287 343.257111,30.990997 366.544189,32.350960
z"/>
<path fill="#1E2849" opacity="1.000000" stroke="none"
	d="
M819.916870,208.090225
	C839.769958,251.514130 825.478333,305.653381 786.478882,332.200989
	C731.313965,369.752777 654.853027,337.354370 643.194580,268.904572
	C636.597290,230.170197 647.845703,196.234055 680.007385,171.836716
	C725.880432,137.038040 790.874146,152.633484 817.967407,204.180450
	C818.586975,205.359268 819.182190,206.550888 819.916870,208.090225
M745.987000,200.251450
	C731.031189,196.841797 717.639771,200.079254 705.806274,209.782028
	C685.900208,226.103806 680.989929,257.144775 694.832214,278.969330
	C713.250732,308.008942 751.887573,309.916687 772.922913,282.825195
	C794.795166,254.656036 781.091064,211.543427 745.987000,200.251450
z"/>
<path fill="#1E2849" opacity="1.000000" stroke="none"
	d="
M1313.089722,342.339722
	C1304.670898,342.791992 1296.508789,343.964844 1288.566772,343.105072
	C1280.660400,342.249176 1277.154663,337.865906 1276.829224,329.878296
	C1276.239502,315.410614 1276.320801,300.915009 1276.163208,286.430603
	C1276.102051,280.812775 1276.153320,275.193756 1276.153320,269.321289
	C1253.256836,269.321289 1230.855225,269.321289 1207.882812,269.321289
	C1207.882812,271.033478 1207.883179,272.639709 1207.882690,274.245941
	C1207.877930,291.236969 1207.935059,308.228302 1207.848389,325.218933
	C1207.782349,338.163971 1203.317993,343.215546 1190.402466,344.024506
	C1184.669189,344.383606 1178.754761,343.865082 1173.094238,342.816864
	C1167.157959,341.717560 1163.574951,337.604462 1162.926147,331.373352
	C1162.616577,328.399414 1162.210327,325.413574 1162.207642,322.432831
	C1162.163208,273.791870 1162.174683,225.150864 1162.183105,176.509857
	C1162.183350,174.679138 1162.158691,172.835770 1162.349854,171.019821
	C1163.312744,161.877502 1167.306152,157.115295 1176.400879,156.351715
	C1183.265625,155.775345 1190.355957,156.174637 1197.172119,157.245346
	C1203.058105,158.169952 1206.773560,162.331528 1207.243408,168.677612
	C1207.488892,171.992538 1207.840576,175.311584 1207.852417,178.629807
	C1207.913696,195.922867 1207.880981,213.216293 1207.880981,230.791306
	C1230.621216,230.791306 1253.028931,230.791306 1275.936401,230.791306
	C1276.006714,229.271240 1276.142334,227.684296 1276.143921,226.097229
	C1276.159912,210.772003 1276.119629,195.446625 1276.177734,180.121597
	C1276.191650,176.464264 1276.270874,172.776489 1276.743530,169.158020
	C1277.707397,161.780014 1281.459839,157.197021 1288.773804,156.563354
	C1296.129639,155.926025 1303.702637,156.251740 1311.026855,157.265457
	C1317.183716,158.117584 1320.911255,162.458267 1321.298950,169.038147
	C1321.524170,172.857162 1321.938599,176.676117 1321.942261,180.495422
	C1321.987061,226.970856 1321.987427,273.446381 1321.942017,319.921783
	C1321.938354,323.739868 1321.809570,327.603607 1321.216919,331.363861
	C1320.463501,336.143188 1318.370728,340.252350 1313.089722,342.339722
z"/>
<path fill="#1E2849" opacity="1.000000" stroke="none"
	d="
M1050.306885,146.370575
	C1056.989624,148.732422 1059.914917,153.419647 1059.956421,159.875351
	C1060.134399,187.522705 1060.210327,215.170715 1060.321777,242.818497
	C1060.328857,244.585464 1060.322632,246.352493 1060.322632,249.463150
	C1064.525635,245.537186 1067.685913,242.462265 1070.977661,239.535080
	C1078.678223,232.687286 1086.063477,225.407303 1094.274536,219.230423
	C1104.832275,211.288239 1111.485107,212.484772 1120.109619,222.512207
	C1122.059937,224.779739 1123.882935,227.178879 1125.558716,229.656586
	C1132.394775,239.763733 1131.884277,244.745468 1122.722412,253.017776
	C1115.926270,259.154022 1108.817383,264.944061 1101.846924,270.887299
	C1099.828003,272.608795 1097.805908,274.326721 1095.359985,276.408173
	C1096.721924,277.649933 1097.841309,278.753845 1099.045776,279.755615
	C1109.929565,288.808014 1120.951782,297.698700 1131.684204,306.926514
	C1140.766479,314.735474 1141.528442,319.842529 1134.979248,329.796753
	C1131.993408,334.334839 1128.267456,338.479706 1124.394775,342.315826
	C1119.886597,346.781464 1114.177490,347.756958 1108.850464,344.145081
	C1101.585938,339.219574 1094.444458,333.993164 1087.878662,328.185333
	C1078.798096,320.152832 1070.302612,311.458862 1060.732056,302.255280
	C1060.528564,304.600586 1060.356079,305.780884 1060.335083,306.963928
	C1060.199219,314.622620 1060.344604,322.295807 1059.915405,329.937195
	C1059.450439,338.215637 1055.614136,342.794434 1047.473999,343.691742
	C1040.770020,344.430725 1033.865356,344.240051 1027.134644,343.585999
	C1020.885437,342.978729 1016.949280,338.928375 1015.925232,332.570221
	C1015.451294,329.627319 1015.131470,326.623047 1015.128845,323.646240
	C1015.081787,271.010437 1015.094116,218.374588 1015.096924,165.738739
	C1015.096985,164.406509 1015.087646,163.071518 1015.163757,161.742462
	C1015.794495,150.730927 1020.091919,145.876007 1031.103882,145.221100
	C1037.338745,144.850296 1043.655029,145.847382 1050.306885,146.370575
z"/>
<path fill="#1E2849" opacity="1.000000" stroke="none"
	d="
M975.800415,209.885681
	C982.426086,211.506027 985.101318,216.101913 986.003601,221.884293
	C986.565063,225.482773 986.664307,229.180511 986.670593,232.834229
	C986.720581,261.981018 986.711121,291.127930 986.694397,320.274811
	C986.682312,341.412231 980.888123,346.108734 957.772156,343.791901
	C948.475281,342.860077 945.207153,340.423889 941.630066,331.385468
	C932.445618,342.274811 920.204712,345.145477 907.072449,343.826355
	C900.286011,343.144684 893.023376,341.435608 887.186707,338.082825
	C863.953674,324.737030 850.116089,304.892456 849.706543,277.409760
	C849.295715,249.844818 862.715332,229.698853 885.703613,215.886383
	C899.932556,207.336945 915.295471,206.004044 930.556091,213.775620
	C934.466736,215.767136 937.821228,218.850800 941.666199,221.600754
	C944.184326,211.118774 952.338745,208.650375 961.978394,208.814377
	C966.456665,208.890549 970.926636,209.454178 975.800415,209.885681
M926.405090,297.188324
	C927.696045,296.440979 929.072998,295.809723 930.263916,294.927429
	C938.160034,289.077942 941.534485,279.677765 939.029419,270.706421
	C936.419250,261.358856 929.042175,254.884567 920.023987,254.027145
	C909.882446,253.062881 901.473572,257.805634 897.029968,267.259033
	C893.112000,275.594116 894.080261,283.507355 900.083496,290.503143
	C906.968323,298.526428 915.568115,300.913452 926.405090,297.188324
z"/>
<path fill="#1E2849" opacity="1.000000" stroke="none"
	d="
M1351.026611,251.040924
	C1364.127197,222.252853 1386.084351,206.161728 1417.414062,205.830215
	C1447.537476,205.511429 1469.787231,220.336578 1482.601929,247.419449
	C1497.659912,279.243286 1484.616821,319.260040 1454.611816,336.894135
	C1422.448853,355.796570 1382.421265,347.585510 1360.077637,317.392365
	C1345.062256,297.101868 1343.376221,274.875092 1351.026611,251.040924
M1394.794067,264.475464
	C1391.181274,273.687042 1390.875488,282.813690 1396.699463,291.193481
	C1402.884399,300.092377 1415.726807,303.728943 1425.718872,299.955750
	C1437.764771,295.406982 1443.523804,286.683289 1442.759033,274.143280
	C1442.026123,262.123718 1435.206177,254.381668 1422.989868,251.701477
	C1412.156616,249.324738 1401.446289,253.967972 1394.794067,264.475464
z"/>
<path fill="#1E2849" opacity="1.000000" stroke="none"
	d="
M1705.926514,280.983521
	C1706.055542,285.637024 1705.873169,289.833008 1706.389282,293.941254
	C1707.093872,299.549744 1709.702026,301.654053 1715.374634,302.002808
	C1718.695679,302.206970 1722.044556,302.157257 1725.338501,302.564301
	C1733.069824,303.519775 1736.905396,306.821320 1737.698364,314.578918
	C1738.299805,320.465820 1737.944946,326.532928 1737.304077,332.442657
	C1736.565186,339.253998 1732.116089,343.223846 1725.434448,344.006622
	C1710.994019,345.698273 1696.827515,344.669037 1683.489258,338.226929
	C1669.620239,331.528381 1663.603149,319.473358 1662.029663,304.992676
	C1661.062256,296.088837 1661.187012,287.056824 1661.016968,278.078644
	C1660.866211,270.114197 1660.985474,262.144653 1660.985474,254.124710
	C1657.768188,254.124710 1654.848389,254.109787 1651.928955,254.127563
	C1644.109375,254.175201 1638.862915,250.469025 1638.126221,242.716293
	C1637.425049,235.337662 1637.542114,227.731857 1638.506958,220.384476
	C1639.568237,212.301804 1645.422974,208.555450 1653.572998,209.311401
	C1655.871948,209.524658 1658.160645,209.848160 1660.985596,210.184357
	C1660.985596,202.203918 1660.965698,194.577454 1660.994507,186.951187
	C1661.007812,183.455627 1660.904419,179.940689 1661.226807,176.469131
	C1661.933838,168.852478 1665.737671,164.244049 1673.201050,163.287094
	C1679.243164,162.512360 1685.515137,162.330658 1691.555908,163.020218
	C1701.289429,164.131348 1705.310181,168.780609 1705.700073,178.505936
	C1706.040039,186.986008 1705.872437,195.486511 1705.924438,203.978027
	C1705.935547,205.786835 1705.926270,207.595764 1705.926270,210.029678
	C1709.319458,209.848541 1712.391357,209.633499 1715.467041,209.532883
	C1719.624390,209.396896 1723.793457,209.133255 1727.941772,209.303772
	C1740.154907,209.805695 1744.728760,214.742767 1745.799316,228.017014
	C1746.201538,233.003204 1745.133301,238.191696 1744.185913,243.183624
	C1742.739380,250.804916 1737.147583,253.674820 1730.036865,254.099808
	C1726.060303,254.337509 1722.055176,254.203156 1718.066284,254.102448
	C1714.245605,254.005997 1710.429321,253.736282 1705.926514,253.508026
	C1705.926514,262.651978 1705.926514,271.569427 1705.926514,280.983521
z"/>
<path fill="#1E2849" opacity="1.000000" stroke="none"
	d="
M1597.945801,211.070084
	C1602.431152,212.988907 1606.724731,214.466476 1610.606201,216.669876
	C1616.151611,219.817871 1617.809937,223.731705 1615.744751,229.731262
	C1614.195557,234.231674 1611.913818,238.612732 1609.246338,242.566650
	C1604.299194,249.899582 1600.316406,251.065125 1592.191772,247.453384
	C1583.351807,243.523651 1574.378784,240.909714 1564.619751,241.997772
	C1562.642456,242.218216 1560.620239,242.464005 1558.744263,243.079987
	C1553.575073,244.777298 1552.523682,249.360565 1557.088135,252.305038
	C1560.725952,254.651733 1565.248413,255.785675 1569.513672,256.969635
	C1579.581055,259.764252 1589.901733,261.745697 1599.802856,265.016205
	C1613.220825,269.448425 1619.953613,279.895782 1621.731567,293.426575
	C1622.503784,299.304810 1622.488281,305.470642 1621.657715,311.339813
	C1619.453247,326.916168 1610.953491,337.592896 1595.526245,342.149628
	C1568.078247,350.256866 1541.577515,348.976959 1516.477783,334.073730
	C1509.316040,329.821442 1507.157593,324.387756 1510.568359,316.838837
	C1512.947876,311.572449 1516.079102,306.566711 1519.436401,301.843933
	C1522.679443,297.281830 1527.771362,297.066589 1532.571533,298.695862
	C1537.263062,300.288208 1541.819214,302.444275 1546.172363,304.831390
	C1554.159912,309.211334 1562.472656,311.552185 1571.598267,310.117493
	C1573.553101,309.810150 1575.680054,309.534088 1577.310425,308.551392
	C1578.696655,307.715790 1580.164185,305.950043 1580.309814,304.469299
	C1580.419434,303.355347 1578.719360,301.378418 1577.430298,300.936432
	C1573.053345,299.435699 1568.458618,298.585297 1564.025024,297.231110
	C1555.309204,294.568939 1546.397217,292.332642 1538.014160,288.844147
	C1522.114624,282.227600 1515.315308,268.908081 1514.145508,252.533096
	C1513.713623,246.487549 1514.199951,240.139664 1515.604126,234.248260
	C1518.674438,221.367157 1527.931030,213.925629 1540.093750,210.221191
	C1559.257690,204.384369 1578.490234,204.507446 1597.945801,211.070084
z"/>
</svg>
