<svg width="200" viewBox="0 0 138 36" fill="none" xmlns="http://www.w3.org/2000/svg">
<g clip-path="url(#clip0_22_65)">
<path d="M119.842 10.8966H113.27V25.1471H115.874V21.5996C115.874 21.255 116.01 20.922 116.256 20.6788C116.499 20.4355 116.831 20.2965 117.175 20.2965H119.842C121.086 20.2965 122.278 19.8013 123.154 18.9239C124.034 18.0435 124.526 16.8505 124.526 15.6081C124.528 14.9913 124.41 14.3774 124.176 13.8069C123.941 13.2364 123.597 12.7152 123.16 12.2779C122.723 11.8406 122.209 11.4931 121.639 11.2557C121.072 11.0182 120.461 10.8966 119.842 10.8966ZM121.893 15.5705C121.893 15.863 121.835 16.1526 121.723 16.4219C121.61 16.6912 121.448 16.9373 121.24 17.1429C121.034 17.3485 120.788 17.5136 120.519 17.6237C120.25 17.7366 119.961 17.7916 119.669 17.7916H115.862V13.3523H119.669C119.961 13.3523 120.25 13.4102 120.522 13.5231C120.791 13.6361 121.037 13.8011 121.242 14.0067C121.448 14.2152 121.613 14.4614 121.723 14.7307C121.833 15.0029 121.89 15.2925 121.888 15.585L121.893 15.5705Z" fill="#6D4AFF"/>
<path d="M104.127 25.095L98.8824 10.8561H101.844L105.295 21.0466C105.431 21.4114 105.53 21.7879 105.587 22.1731H105.616C105.66 21.785 105.758 21.4057 105.909 21.0466L109.371 10.8561H112.353L107.083 25.095H104.127Z" fill="#6D4AFF"/>
<path d="M125.5 25.0947V10.8529H127.783L134.499 19.6853C134.742 19.9893 134.951 20.3166 135.127 20.6641H135.168C135.121 20.2355 135.101 19.804 135.104 19.3725V10.8529H137.794V25.0918H135.512L128.775 16.2595C128.538 15.9525 128.329 15.6253 128.15 15.2807H128.127C128.165 15.7093 128.179 16.1407 128.17 16.5722V25.0918H125.5V25.0947Z" fill="#6D4AFF"/>
<path d="M38 21.259V24.924H40.5591V21.4191C40.5591 21.0789 40.6927 20.7502 40.9344 20.51C41.1732 20.2699 41.5002 20.1327 41.8386 20.1327H44.463C45.6857 20.1327 46.86 19.6438 47.7244 18.7719C48.5888 17.9028 49.075 16.7221 49.075 15.4928C49.075 14.2635 48.5888 13.0828 47.7244 12.2109C46.86 11.3418 45.6857 10.8529 44.4602 10.8529H38V15.4328H40.5591V13.2744H44.2896C44.8697 13.2744 45.4241 13.5059 45.8336 13.9176C46.243 14.3293 46.4733 14.8867 46.4733 15.4699C46.4733 16.0531 46.243 16.6106 45.8336 17.0223C45.4241 17.4339 44.8697 17.6655 44.2896 17.6655H41.5798C41.1107 17.6655 40.6444 17.757 40.2122 17.9399C39.7771 18.12 39.3847 18.3859 39.0521 18.7204C38.7194 19.0549 38.4578 19.4523 38.2758 19.8868C38.0938 20.3185 38 20.7873 38 21.259Z" fill="#fff"/>
<path d="M49.4703 24.924V19.3408C49.4703 17.0623 50.7925 15.2498 53.4397 15.2498C53.8633 15.2441 54.287 15.2898 54.7022 15.3899V17.6855C54.4008 17.6655 54.142 17.6655 54.0197 17.6655C52.6179 17.6655 52.0151 18.3116 52.0151 19.6209V24.924H49.4703Z" fill="#fff"/>
<path d="M55.4641 20.1899C55.4641 17.3882 57.5682 15.2527 60.4969 15.2527C63.4256 15.2527 65.5297 17.3882 65.5297 20.1899C65.5297 22.9915 63.4256 25.1471 60.4969 25.1471C57.5682 25.1471 55.4641 22.9886 55.4641 20.1899ZM63.0218 20.1899C63.0218 18.5975 61.9584 17.4683 60.4969 17.4683C59.0325 17.4683 57.972 18.5946 57.972 20.1899C57.972 21.8022 59.0354 22.9115 60.4969 22.9115C61.9612 22.9115 63.0218 21.7994 63.0218 20.1899Z" fill="#fff"/>
<path d="M73.6676 20.1899C73.6676 17.3882 75.7717 15.2527 78.7004 15.2527C81.6263 15.2527 83.7304 17.3882 83.7304 20.1899C83.7304 22.9915 81.6263 25.1471 78.7004 25.1471C75.7717 25.1471 73.6676 22.9886 73.6676 20.1899ZM81.2225 20.1899C81.2225 18.5975 80.1591 17.4683 78.6976 17.4683C77.2361 17.4683 76.1726 18.5946 76.1726 20.1899C76.1726 21.8022 77.2361 22.9115 78.6976 22.9115C80.1591 22.9115 81.2225 21.7994 81.2225 20.1899Z" fill="#fff"/>
<path d="M85.0526 24.9241V19.5438C85.0526 17.0452 86.6364 15.2498 89.4627 15.2498C92.2692 15.2498 93.8529 17.0423 93.8529 19.5438V24.9241H91.328V19.7439C91.328 18.3545 90.7053 17.4854 89.4627 17.4854C88.2202 17.4854 87.5975 18.3516 87.5975 19.7439V24.9241H85.0526Z" fill="#fff"/>
<path d="M72.9056 17.4881H70.1588V21.0159C70.1588 22.2452 70.5996 22.8084 71.862 22.8084C71.9815 22.8084 72.2829 22.8084 72.6639 22.7884V24.8639C72.1435 25.004 71.6829 25.0869 71.1796 25.0869C69.0556 25.0869 67.6112 23.7976 67.6112 21.359V17.4881H65.9051V15.4527H66.3316C66.4994 15.4527 66.6671 15.4184 66.8207 15.3555C66.9771 15.2897 67.1164 15.1954 67.2358 15.0753C67.3553 14.9552 67.4491 14.8152 67.5145 14.6579C67.5799 14.5007 67.6112 14.3349 67.6112 14.1662V12.2479H70.156V15.4527H72.9027V17.4881H72.9056Z" fill="#fff"/>
<path fill-rule="evenodd" clip-rule="evenodd" d="M11.2469 29.1488C12.3111 31.0619 15.0438 31.1655 16.252 29.3386L27.5173 12.304C28.712 10.4975 27.569 8.07556 25.4056 7.82941L3.26327 5.31001C0.902563 5.04141 -0.778275 7.53062 0.369952 9.59484L0.46 9.75588L10.34 16.5259L10.22 27.2959L11.2469 29.1488Z" fill="url(#paint0_linear_22_65)"/>
<path d="M11.8814 27.3645L12.8812 25.8733L20.4754 14.4018C21.1394 13.3988 20.5057 12.0534 19.3043 11.9155L0.457397 9.75168L10.2206 27.3036C10.577 27.9317 11.4779 27.9663 11.8814 27.3645Z" fill="url(#paint1_radial_22_65)"/>
</g>
<defs>
<linearGradient id="paint0_linear_22_65" x1="25.3201" y1="29.1475" x2="7.30347" y2="-1.92241" gradientUnits="userSpaceOnUse">
<stop offset="0.0660125" stop-color="#8EFFEE"/>
<stop offset="0.4499" stop-color="#C9C7FF"/>
<stop offset="1" stop-color="#7341FF"/>
</linearGradient>
<radialGradient id="paint1_radial_22_65" cx="0" cy="0" r="1" gradientUnits="userSpaceOnUse" gradientTransform="translate(11.9074 1.71658) rotate(93.7553) scale(28.5876 36.8668)">
<stop offset="0.403126" stop-color="#6D4AFF"/>
<stop offset="0.9944" stop-color="#00F0C3"/>
</radialGradient>
<clipPath id="clip0_22_65">
<rect width="138" height="36" fill="white"/>
</clipPath>
</defs>
</svg>
