<svg xmlns="http://www.w3.org/2000/svg" viewBox="0 0 208.29 36.38" width="200">
  <path d="M.02 17.54v.02l.02.02-.02.02v.55l.02 1 .02.01H.04l.1 1.08a19.84 19.84 0 0 0 1.88 6.21c.38.8.99 1.78 1.81 2.93.72.91 1.65 1.82 2.8 2.72 1.5 1.06 3.13 2 4.88 2.79h.02c-.28-.59-.56-1.12-.84-1.6-.82-1.32-2.1-3.27-3.83-5.84-2.14-3.31-3.2-6.24-3.2-8.8v-.02l-.03-.02h.03l-.02-.21c0-3.58 1.24-6.76 3.73-9.53l.64-.7A17.41 17.41 0 0 1 10.67 6c1-.6 2-1.1 2.99-1.48a15.7 15.7 0 0 1 4.76-.92h.03l.02-.02v.02l.11-.02h.9a15.68 15.68 0 0 1 10.78 4.34 13.81 13.81 0 0 1 4.32 10.12l-.02.88-.02.08.02.01-.02.02v.18l-.04.12.04.02-.2 1.25c0 .4-.23 1.27-.7 2.6a14.04 14.04 0 0 1-3.63 5.23c-.88.8-1.53 1.3-1.93 1.49-1.3.67-1.96 1.38-1.96 2.13 0 .17.03.37.08.6.3.86.89 1.3 1.76 1.3.32 0 .69-.11 1.1-.32.92-.55 2.05-1.39 3.4-2.52.83-.8 1.5-1.53 2.02-2.17a19.96 19.96 0 0 0 1.92-2.99c.43-.91.83-2 1.2-3.28.38-1.81.58-3.2.58-4.16l-.02-.02.02-.02v-1.23l-.02-.02h.02l-.02-.08a16.3 16.3 0 0 0-3.23-9.26c-.41-.66-1.26-1.6-2.54-2.81a20.62 20.62 0 0 0-6.64-3.93 19.66 19.66 0 0 0-5.9-1.13L19.73 0l-.02.02-.13-.02h-1.16l-.03.02V0l-.47.02a20.8 20.8 0 0 0-4.71.82c-1.47.5-2.7 1-3.66 1.54-1.08.6-2.2 1.4-3.38 2.38A21.69 21.69 0 0 0 3.73 7.4a21.01 21.01 0 0 0-2.28 3.83 16.74 16.74 0 0 0-1.41 6.15l-.02.12.02.02zM18.6 5.14V5.1c-1.02.06-1.9.18-2.66.35-2.1.45-4.03 1.38-5.8 2.79a13.04 13.04 0 0 0-4.16 14.1c.39 1.15 1.4 2.95 3 5.4.37.53 2.07 3.2 5.1 7.99.78.22 2.3.43 4.58.64h.02l.02-.02a419.98 419.98 0 0 0-7.64-12.52c-1.3-1.91-1.95-3.73-1.95-5.45v-.04l-.02-.02.02-.02v-.4c0-1.05.25-2.17.76-3.35a10.21 10.21 0 0 1 8.67-5.84v.02l.12-.02H19l.02-.04.02.04h.21l.02-.04.02.04h.06l.02-.04.02.04h.06a10.18 10.18 0 0 1 7.2 3.18 8.14 8.14 0 0 1 2.44 5.36l.01.08h-.02l.02.1v1.05l-.02.1.02.03h-.02c0 .34-.08.9-.23 1.67a10.4 10.4 0 0 1-.86 2.18 9.13 9.13 0 0 1-1.64 2.23c-.49.47-.9.8-1.27.98-1.15.5-1.72 1.19-1.72 2.05l.1.59c.32.82.9 1.23 1.72 1.23h.03c.28 0 .53-.06.77-.16.37-.04 1.23-.65 2.58-1.84 2.91-2.77 4.37-5.92 4.37-9.45v-.73l-.02-.01h.02v-.02a11.87 11.87 0 0 0-2.1-6.06 14.8 14.8 0 0 0-4.76-4.4 15.9 15.9 0 0 0-2.95-1.23 16.66 16.66 0 0 0-3.36-.54l-.02.03-.02-.03h-1.11zm.31 5.2v-.05c-.63.05-1.06.1-1.29.16a8.17 8.17 0 0 0-4.57 2.32 7.65 7.65 0 0 0-.94 9.67 77.2 77.2 0 0 1 2.66 4.13c2.32 3.92 4.34 7.13 6.06 9.63.9 0 2.18-.22 3.85-.66a501.04 501.04 0 0 0-8-12.92c-1.33-1.9-2-3.34-2-4.32 0-1.14.38-2.16 1.15-3.05a4.34 4.34 0 0 1 2.97-1.32h.03l.03-.02v.02l.15-.02a4.6 4.6 0 0 1 2.81.84 4.5 4.5 0 0 1 1.72 3.45v.08c0 .43-.07.87-.23 1.31a3.2 3.2 0 0 1-1.33 1.62c-.96.67-1.44 1.33-1.44 1.98.01.2.05.38.11.56.4.85.99 1.27 1.78 1.27.64 0 1.35-.3 2.13-.93 1.86-1.76 2.8-3.72 2.8-5.89v-.11a7.95 7.95 0 0 0-5.38-7.39 9.14 9.14 0 0 0-2.32-.4l-.02.03-.02-.04h-.02l-.02.04-.04-.04h-.6z" style="fill:#4ec3e0;fill-opacity:1;fill-rule:evenodd;stroke:none;stroke-width:.0333332"/>
  <path style="fill:#4ec3e0;fill-opacity:1;fill-rule:nonzero;stroke:none;stroke-width:.0536956" d="M208.3 20.21c0-3.68-2.41-6.65-5.89-6.65-1.16 0-2.67.35-3.35 1.18V7.8h-3.58v18.77h3.58V20.2a3.06 3.06 0 0 1 3.05-3.08c1.46 0 2.65 1.04 2.65 3.08v6.35h3.55zm-19.67 1.23c.8.13 1.13.48 1.13.99 0 .47-.3.85-.95.85-.56 0-1.01-.15-1.39-.55l-3.02 2.2a5.47 5.47 0 0 0 4.38 1.9c2.75 0 4.89-1.76 4.89-4.35 0-2.62-1.8-3.83-4.13-4.14-1.06-.12-1.36-.37-1.36-.8 0-.38.27-.66.75-.66s.83.23 1.16.53l2.57-1.86c-.9-1.31-2.17-2-3.8-2-1.9 0-4.19 1.64-4.19 3.86 0 2.17 1.64 3.7 3.96 4.03zm-7.61-9.85c1.21 0 2.14-.93 2.14-2.04 0-1.03-.93-1.96-2.14-1.96-1.1 0-2.07.95-2.07 1.96 0 1.11.96 2.04 2.07 2.04zm1.81 2.25h-3.57v12.72h3.57zM170.2 26.56v-8.22h7.05v-3.52h-7.05v-3.5h6.07V7.79h-9.98v18.77Zm-24.06 2.8c-1.06 0-2-.56-2.52-1.44l-2.9 2.1a6.5 6.5 0 0 0 11.92-3.58v-12.6h-3.58v.88a4.86 4.86 0 0 0-3.1-1.16c-3.4 0-6.25 2.97-6.25 6.65 0 3.63 2.77 6.63 6.25 6.63 1.16 0 2.54-.46 3.1-1.19v1c0 1.52-1.29 2.7-2.92 2.7zm.17-6.08a2.96 2.96 0 0 1-2.97-3.07 2.97 2.97 0 0 1 2.97-3.08c1.66 0 2.9 1.3 2.9 3.08 0 1.81-1.24 3.07-2.9 3.07zm-8.41-3.07c0-3.68-2.42-6.65-5.9-6.65-1.16 0-2.65.35-3.35 1.16v-.88h-3.58v12.72h3.58V20.2c0-2.04 1.46-3.08 3.05-3.08 1.46 0 2.64 1.04 2.64 3.08v6.35h3.56zm-17.16-8.62a2.1 2.1 0 0 0 2.14-2.04c0-1.03-.93-1.96-2.14-1.96-1.1 0-2.07.95-2.07 1.96 0 1.11.96 2.04 2.07 2.04zm1.81 2.25h-3.57v12.72h3.57zm-14.91 18.8v-6.99c.68.8 1.96 1.19 3.02 1.19 3.48 0 6.33-3 6.33-6.68 0-3.63-2.75-6.6-6.25-6.6a4.8 4.8 0 0 0-3.1 1.16v-.88h-3.58v18.8zm2.74-15.5a2.95 2.95 0 0 1 2.98 3.04c0 1.82-1.34 3.1-2.98 3.1-1.66 0-2.9-1.28-2.9-3.1 0-1.78 1.24-3.05 2.9-3.05zm-12.42-3.3v.88a4.86 4.86 0 0 0-3.1-1.16c-3.4 0-6.24 2.97-6.24 6.65 0 3.63 2.77 6.63 6.24 6.63 1.16 0 2.55-.46 3.1-1.19v.9h3.58v-12.7Zm-2.74 9.44a2.95 2.95 0 0 1-2.98-3.07 2.97 2.97 0 0 1 2.98-3.08c1.66 0 2.9 1.3 2.9 3.08 0 1.81-1.24 3.07-2.9 3.07zm-7.66-9.67c-.33-.05-.58-.05-.88-.05-.99 0-2.05.33-2.83 1.16v-.88h-3.57v12.72h3.57V20.2c0-2.04 1.19-3.08 2.57-3.08.4 0 .78.06 1.14.18zm-12.78 7.35a2.93 2.93 0 0 1-2.97 2.32 2.96 2.96 0 0 1-2.97-3.07 2.97 2.97 0 0 1 2.97-3.08c.88 0 1.71.3 2.37 1.14L77 16.05a6.62 6.62 0 0 0-11.82 4.16 6.63 6.63 0 0 0 6.61 6.63c3.43 0 6.3-2.6 6.68-5.88zm-18.01-2.72c1.81.2 2.82 1.14 2.82 2.65 0 1.2-1 2.24-2.3 2.24-1.1 0-1.98-.28-2.84-1.36l-3.22 2.37a7.99 7.99 0 0 0 6.07 2.75c3.3 0 6.35-2.62 6.35-6.28 0-3.63-2.65-5.8-5.85-6-1.99-.12-2.62-.9-2.62-1.76 0-1.03.7-1.66 1.74-1.66.65 0 1.49.4 1.99.93l3.07-2.24a6.38 6.38 0 0 0-5.06-2.42c-2.6 0-5.52 2.24-5.52 5.42 0 2.95 2.12 4.99 5.37 5.36z"/>
</svg>
