<?xml version="1.0" encoding="UTF-8" standalone="no"?>
<svg xmlns="http://www.w3.org/2000/svg" viewBox="0 0 515.05 124.235" width="140">
  <defs>
    <linearGradient id="Gradient">
      <stop style="stop-color:#377fea;stop-opacity:1" offset="0" id="stop120361"></stop>
      <stop style="stop-color:#8d45f0;stop-opacity:0.98431373" offset="1" id="stop120363"></stop>
    </linearGradient>
    <linearGradient id="linearGradient149" x1="-1135.0444" y1="805.77838" x2="-267.25079" y2="-62.005249" gradientUnits="userSpaceOnUse" gradientTransform="matrix(0.326618, 0, 0, 0.326656, -17.282596, 728.36887)" href="#Gradient"></linearGradient>
  </defs>
  <g id="svg1143" transform="matrix(0.965964, 0, 0, 0.965964, 92.711891, 11.489885)">
    <g id="g1149" transform="matrix(0.415877, 0, 0, 0.415877, 67.821869, -303.819763)">
      <path id="rect31" style="fill: url(#linearGradient149); fill-opacity: 1; stroke: none; stroke-width: 0.303054; stroke-miterlimit: 4; stroke-dasharray: none; stroke-opacity: 1;" d="M -308.66 708.206 C -352.4 708.206 -387.87 743.665 -387.87 787.404 L -387.87 889.139 L -331.44 889.139 C -325.89 874.808 -312.12 865.347 -296.74 865.307 C -276.13 865.307 -259.42 882.014 -259.42 902.624 C -259.43 918.999 -270.12 933.452 -285.77 938.263 L -285.77 991.422 L -201.08 991.422 L -201.08 940.352 C -217.75 936.268 -229.44 921.377 -229.52 904.242 C -229.44 887.108 -217.75 872.217 -201.08 868.132 L -201.08 831.309 C -217.75 827.223 -229.44 812.331 -229.52 795.198 C -229.52 774.588 -212.81 757.878 -192.19 757.878 C -175.67 757.882 -161.12 768.741 -156.42 784.572 L -104.8 784.572 C -106.32 741.978 -141.3 708.229 -183.91 708.206 L -285.77 708.206 L -285.77 760.286 C -270.1 765.101 -259.42 779.57 -259.42 795.955 C -259.42 816.564 -276.13 833.273 -296.74 833.273 C -317.33 833.273 -334.06 816.564 -334.06 795.955 C -334.02 778.944 -322.48 764.108 -306 759.88 L -306 708.206 L -308.66 708.206 Z M -156.19 804.81 C -159.53 816.998 -168.8 826.667 -180.83 830.504 L -180.83 868.712 C -165.38 873.645 -154.91 888.009 -154.86 904.242 C -154.94 920.416 -165.46 934.697 -180.83 939.612 L -180.83 991.121 C -138.43 989.477 -104.84 954.678 -104.74 912.225 L -104.74 804.81 L -156.19 804.81 Z M -387.87 909.378 L -387.87 912.225 C -387.87 955.966 -352.4 991.422 -308.66 991.422 L -306 991.422 L -306 938.701 C -320.05 935.069 -330.71 923.635 -333.36 909.378 L -387.87 909.378 Z"></path>
      <path d="M 843.073 765.792 L 843.073 787.792 L 884.473 787.792 L 884.473 743.792 L 843.073 743.792 L 843.073 765.792 Z M 10.645 751.112 C 10.115 751.152 8.175 751.272 6.425 751.392 C -7.257 752.312 -18.277 755.012 -25.78 759.232 C -37.275 765.792 -43.013 776.432 -44.582 794.192 C -45.142 800.492 -45.012 813.852 -44.332 821.192 C -42.403 843.472 -34.826 852.612 -12.507 859.892 C -7.667 861.432 -1.477 863.052 7.175 864.992 C 11.175 865.892 16.605 867.172 19.235 867.832 C 33.567 871.432 38.257 874.332 39.757 880.612 C 40.787 884.992 40.787 895.472 39.787 900.192 C 37.937 908.372 32.537 911.352 18.605 911.752 C 0.243 912.312 -16.777 909.892 -37.275 903.852 C -39.314 903.252 -41.084 902.832 -41.274 902.912 C -41.334 903.132 -48.511 935.992 -48.321 936.112 C -48.071 936.372 -41.524 938.972 -38.425 940.012 C -26.53 944.112 -13.797 946.672 0.992 948.012 C 4.895 948.352 19.435 948.472 24.505 948.212 C 51.127 946.772 66.437 940.932 75.047 928.852 C 81.867 919.252 84.377 905.412 83.537 881.792 C 83.037 869.232 82.037 863.372 79.187 857.492 C 73.687 846.052 61.434 839.472 32.097 832.272 C 13.615 827.712 11.145 827.052 7.495 825.592 C 2.362 823.532 -0.047 821.192 -1.077 817.092 C -1.827 814.192 -2.137 805.912 -1.637 801.292 C -0.887 793.312 2.362 790.032 10.735 788.692 C 17.485 787.612 33.627 787.972 47.597 789.512 C 53.027 790.112 62.544 791.452 69.797 792.652 C 73.047 793.192 74.997 793.432 75.047 793.292 C 75.127 792.912 79.297 757.332 79.297 757.272 C 79.087 757.112 71.127 755.572 66.547 754.812 C 56.846 753.192 48.347 752.192 37.257 751.372 C 34.347 751.172 12.865 750.952 10.645 751.112 Z M 550.373 754.032 C 550.173 754.612 492.073 945.392 492.073 945.492 C 492.073 945.552 502.173 945.572 514.513 945.552 L 536.973 945.492 L 542.013 927.292 C 544.773 917.272 547.093 908.892 547.173 908.632 L 547.273 908.192 L 579.433 908.232 L 611.573 908.292 L 616.673 926.692 C 619.493 936.812 621.833 945.212 621.873 945.352 C 621.953 945.552 626.553 945.592 644.393 945.552 L 666.793 945.492 L 637.473 849.692 L 608.133 753.892 L 579.293 753.832 C 556.333 753.792 550.433 753.832 550.373 754.032 Z M 590.233 832.032 C 596.193 853.952 601.073 871.952 601.073 872.032 C 601.073 872.132 591.173 872.192 579.053 872.192 C 560.793 872.192 557.053 872.152 557.133 871.932 C 557.193 871.772 562.173 853.772 568.193 831.932 C 574.213 810.072 579.213 792.192 579.273 792.192 C 579.333 792.192 584.273 810.132 590.233 832.032 Z M 162.885 802.512 C 159.426 802.692 155.176 803.052 153.176 803.312 C 127.243 806.812 112.03 820.492 107.9 844.132 C 106.87 850.072 106.87 850.312 106.74 872.692 C 106.65 894.712 106.74 898.032 107.53 903.572 C 108.93 913.732 112.53 922.712 117.783 929.292 C 125.243 938.612 136.773 944.672 151.556 947.072 C 158.386 948.192 163.045 948.472 171.978 948.332 C 182.658 948.152 191.668 947.152 202.673 944.892 C 210.513 943.292 222.073 939.972 222.073 939.352 C 222.073 939.112 216.293 909.232 216.153 908.772 C 216.073 908.472 215.973 908.472 215.113 908.712 C 206.953 911.192 193.013 913.492 181.718 914.212 C 176.788 914.532 166.263 914.352 163.505 913.912 C 155.336 912.572 151.426 909.832 149.486 903.972 C 148.646 901.492 148.296 898.932 148.146 894.132 L 148.046 889.992 L 223.673 889.992 L 223.673 875.232 C 223.673 859.912 223.493 853.352 222.953 848.532 C 220.513 826.392 210.853 812.772 193.023 806.372 C 188.533 804.772 182.318 803.452 176.478 802.912 C 173.368 802.612 165.353 802.372 162.885 802.512 Z M 170.683 835.192 C 175.003 835.732 177.788 836.912 180.083 839.192 C 183.348 842.452 184.333 845.852 184.363 854.092 L 184.373 858.892 L 148.206 858.892 L 148.116 855.892 C 147.986 847.652 149.396 842.952 153.076 839.552 C 155.296 837.472 158.106 836.132 161.516 835.512 C 164.415 834.972 167.918 834.852 170.683 835.192 Z M 429.973 802.612 C 422.113 803.152 412.973 805.532 403.833 809.412 C 400.273 810.932 394.953 813.612 392.213 815.252 L 390.053 816.552 L 389.813 815.932 C 389.673 815.572 388.693 813.072 387.653 810.352 L 385.773 805.392 L 353.273 805.392 L 353.273 906.692 C 353.273 999.631 353.293 1007.99 353.593 1007.99 C 353.773 1007.99 362.993 1006.74 374.073 1005.2 C 385.173 1003.65 394.333 1002.39 394.453 1002.39 C 394.613 1002.39 394.673 993.912 394.673 973.432 L 394.673 944.452 L 396.333 944.812 C 403.453 946.392 412.733 947.612 422.033 948.212 C 426.873 948.512 436.553 948.352 439.773 947.912 C 453.353 946.012 462.833 940.612 469.153 931.192 C 470.673 928.932 473.053 924.052 474.033 921.192 C 475.553 916.752 476.533 911.972 477.213 905.892 C 477.473 903.572 477.533 898.912 477.613 878.692 C 477.713 853.912 477.613 848.412 476.973 843.192 C 474.973 826.752 468.653 815.252 458.033 808.672 C 452.273 805.092 445.473 803.132 436.973 802.592 C 433.673 802.372 433.173 802.372 429.973 802.612 Z M 423.273 838.592 C 427.253 838.972 429.753 839.952 431.893 841.952 C 434.033 843.952 435.213 846.352 435.773 849.852 C 436.213 852.592 436.213 898.292 435.773 900.852 C 434.813 906.312 432.193 909.752 427.693 911.392 C 425.293 912.272 423.393 912.472 418.473 912.332 C 413.973 912.212 409.493 911.752 404.273 910.912 C 401.133 910.392 396.853 909.552 395.433 909.192 L 394.673 908.972 L 394.673 849.432 L 395.533 848.692 C 396.853 847.552 400.773 844.972 403.093 843.732 C 409.133 840.492 414.633 838.852 420.773 838.412 C 420.993 838.412 422.113 838.492 423.273 838.592 Z M 766.173 802.512 C 754.373 803.212 739.293 808.172 727.433 815.252 L 725.293 816.532 L 724.313 814.012 C 723.773 812.632 722.813 810.112 722.173 808.432 L 720.993 805.392 L 688.473 805.392 L 688.473 906.692 C 688.473 1000.29 688.493 1007.99 688.793 1007.99 C 688.973 1007.99 698.213 1006.74 709.313 1005.2 C 720.413 1003.65 729.573 1002.39 729.673 1002.39 C 729.793 1002.39 729.873 991.732 729.873 973.432 L 729.873 944.472 L 733.533 945.212 C 739.573 946.432 744.833 947.152 753.073 947.932 C 757.773 948.372 770.853 948.432 774.073 948.032 C 780.273 947.252 785.973 945.632 790.653 943.252 C 794.493 941.332 796.833 939.632 799.873 936.592 C 805.713 930.752 809.273 923.572 811.273 913.592 C 812.753 906.192 812.873 903.332 812.873 875.392 C 812.873 847.612 812.753 844.832 811.273 837.392 C 807.213 816.992 795.153 805.232 775.873 802.912 C 773.273 802.612 768.253 802.392 766.173 802.512 Z M 758.673 838.592 C 761.193 838.832 762.633 839.232 764.613 840.192 C 767.673 841.692 769.653 844.352 770.733 848.392 L 771.173 850.092 L 771.173 900.692 L 770.733 902.372 C 769.493 906.992 766.693 910.172 762.713 911.472 C 760.093 912.332 758.773 912.452 753.873 912.332 C 749.433 912.212 746.653 911.952 741.173 911.172 C 738.433 910.772 732.113 909.572 730.633 909.172 L 729.873 908.972 L 729.873 849.392 L 731.033 848.492 C 737.573 843.272 746.793 839.292 753.933 838.612 C 756.253 838.372 756.553 838.372 758.673 838.592 Z M 326.273 803.112 C 317.253 805.472 303.133 811.632 293.773 817.292 C 292.213 818.252 291.333 818.672 291.253 818.532 C 291.193 818.392 290.513 815.392 289.773 811.832 L 288.413 805.392 L 253.873 805.392 L 253.873 945.592 L 295.273 945.592 L 295.273 860.032 L 297.433 858.632 C 304.573 854.012 316.973 847.892 329.113 842.992 C 330.793 842.312 332.233 841.692 332.313 841.632 C 332.393 841.552 331.693 832.892 330.753 822.392 C 329.833 811.892 329.073 803.132 329.073 802.932 C 329.073 802.472 328.593 802.492 326.273 803.112 Z M 843.073 875.492 L 843.073 945.592 L 884.473 945.592 L 884.473 805.392 L 843.073 805.392 L 843.073 875.492 Z" id="path18" style="fill: #fff; fill-opacity: 1; stroke: none; stroke-width: 2; stroke-miterlimit: 4; stroke-dasharray: none; stroke-opacity: 1;"></path>
    </g>
  </g>
</svg>
