<svg width="120" viewBox="0 0 1285 355" fill="none" xmlns="http://www.w3.org/2000/svg">
<path d="M132.875 287.219C48.5 287.219 0.406249 242.5 0.406249 165.719V0.343784H45.5469V162.766C45.5469 219.719 70.8594 243.344 132.875 243.344C194.891 243.344 220.203 219.719 220.203 162.766V0.343784H265.766V165.719C265.766 242.5 217.672 287.219 132.875 287.219ZM351.703 283H306.14V73.3282H347.906V138.297H350.859C357.187 102.859 385.031 69.1094 438.187 69.1094C496.406 69.1094 525.093 108.344 525.093 156.859V283H479.531V169.094C479.531 129.859 461.812 110.031 418.359 110.031C372.375 110.031 351.703 133.656 351.703 179.219V283ZM611.255 283H565.692V0.343784H611.255V156.438H671.161L734.02 73.3282H787.177L708.286 174.156L786.755 283H733.177L671.161 197.359H611.255V283ZM915.057 287.219C846.292 287.219 801.151 248.406 801.151 178.375C801.151 112.984 845.87 69.1094 914.214 69.1094C979.182 69.1094 1023.48 104.969 1023.48 168.672C1023.48 176.266 1023.06 182.172 1021.79 188.5H843.761C845.448 229 865.276 250.516 913.792 250.516C957.667 250.516 975.807 236.172 975.807 211.281V207.906H1021.37V211.703C1021.37 256.422 977.495 287.219 915.057 287.219ZM913.37 104.969C866.964 104.969 846.714 125.641 844.182 163.188H980.448V162.344C980.448 123.531 958.089 104.969 913.37 104.969ZM1091.36 354.719H1061.4V313.375H1102.32C1120.89 313.375 1128.48 308.312 1134.81 293.969L1139.87 283L1036.51 73.3282H1087.56L1141.14 184.703L1161.81 234.906H1165.18L1185.01 184.281L1234.37 73.3282H1284.57L1175.31 305.781C1158.01 343.328 1134.39 354.719 1091.36 354.719Z" fill="black"/>
</svg>
