<svg width="2475" height="391" viewBox="0 0 2475 391" fill="none" xmlns="http://www.w3.org/2000/svg">
<path d="M635.507 294.741H416V254.708L559.489 91.4269H423.647V42.3977H635.957V86.0292L497.416 245.712H635.507V294.741Z" fill="white"/>
<path d="M793.344 299.689C767.855 299.689 745.365 294.141 725.873 283.046C706.381 271.95 691.238 256.657 680.442 237.165C669.947 217.374 664.699 195.033 664.699 170.144C664.699 147.053 669.347 125.463 678.643 105.371C688.239 84.9797 702.483 68.4867 721.375 55.892C740.567 43.2973 763.957 37 791.545 37C814.336 37 835.327 41.798 854.519 51.3939C873.71 60.69 889.154 75.2338 900.849 95.0254C912.544 114.517 918.391 138.807 918.391 167.895V180.939H727.672C728.572 191.435 731.721 201.33 737.118 210.626C743.116 222.321 751.062 231.468 760.958 238.065C771.154 244.362 782.699 247.511 795.593 247.511C809.388 247.511 821.233 244.062 831.128 237.165C841.024 229.968 848.071 220.822 852.269 209.727H914.343C906.247 236.415 892.003 258.156 871.611 274.949C851.22 291.442 825.131 299.689 793.344 299.689ZM856.318 135.508C855.118 125.912 851.97 118.116 846.872 112.118C841.174 103.422 833.677 96.8246 824.381 92.3265C815.085 87.5286 804.74 85.1296 793.344 85.1296C781.949 85.1296 771.604 87.3786 762.308 91.8767C753.311 96.3748 745.964 103.122 740.267 112.118C734.869 118.715 731.571 126.512 730.371 135.508H856.318Z" fill="white"/>
<path d="M962.764 294.741V42.3977H1023.49V72.5349C1032.78 59.6404 1043.13 50.4943 1054.53 45.0966C1066.22 39.6989 1079.86 37 1095.46 37H1102.66V95.4752H1088.71C1069.52 95.4752 1054.53 100.573 1043.73 110.769C1036.83 117.666 1031.74 126.512 1028.44 137.307C1025.14 147.803 1023.49 161.297 1023.49 177.79V294.741H962.764Z" fill="white"/>
<path d="M1253.71 299.689C1228.52 299.689 1206.18 294.141 1186.69 283.046C1167.19 271.95 1151.9 256.357 1140.8 236.266C1130.01 216.174 1124.61 193.084 1124.61 166.995C1124.61 141.806 1130.01 119.315 1140.8 99.5235C1151.9 79.7319 1167.19 64.4384 1186.69 53.6429C1206.18 42.5476 1228.52 37 1253.71 37C1278.9 37 1301.24 42.5476 1320.73 53.6429C1340.52 64.7382 1355.81 80.1817 1366.61 99.9733C1377.7 119.465 1383.25 141.806 1383.25 166.995C1383.25 193.084 1377.85 216.174 1367.06 236.266C1356.26 256.357 1340.97 271.95 1321.18 283.046C1301.69 294.141 1279.2 299.689 1253.71 299.689ZM1253.71 247.511C1273.5 247.511 1289.54 240.014 1301.84 225.02C1314.13 210.027 1320.28 190.685 1320.28 166.995C1320.28 144.205 1314.13 125.612 1301.84 111.219C1289.54 96.5248 1273.5 89.1779 1253.71 89.1779C1240.81 89.1779 1229.27 92.4765 1219.07 99.0737C1208.88 105.671 1200.93 114.967 1195.23 126.962C1189.53 138.657 1186.69 152.001 1186.69 166.995C1186.69 190.985 1192.83 210.476 1205.13 225.47C1217.72 240.164 1233.92 247.511 1253.71 247.511Z" fill="white"/>
<path d="M1561.66 43.2973V72.0851H1550.42C1526.73 72.0851 1509.19 79.2821 1497.79 93.676C1490.59 102.672 1485.35 113.618 1482.05 126.512C1479.05 139.407 1477.55 155.3 1477.55 174.192V294.741H1448.31V47.7954H1477.55V84.6798C1493.74 57.0915 1519.08 43.2973 1553.57 43.2973H1561.66Z" fill="white"/>
<path d="M1670.99 299.239C1646.1 299.239 1625.86 293.091 1610.27 280.797C1594.68 268.502 1586.88 251.259 1586.88 229.069C1586.88 207.178 1595.72 189.935 1613.42 177.341C1621.21 171.943 1629.76 167.745 1639.06 164.746C1648.65 161.447 1659.3 158.598 1670.99 156.199L1759.16 138.657C1758.26 115.867 1752.71 98.7738 1742.51 87.3786C1731.72 75.3837 1714.92 69.3863 1692.13 69.3863C1675.34 69.3863 1660.65 74.0343 1648.05 83.3304C1635.76 92.6264 1628.11 104.771 1625.11 119.765H1595.87C1599.47 96.075 1610.27 77.4828 1628.26 63.9886C1646.55 50.1944 1667.99 43.2973 1692.58 43.2973C1723.47 43.2973 1747.01 51.8437 1763.2 68.9365C1780 86.629 1788.39 112.718 1788.39 147.203V294.741H1759.16V248.41C1751.06 263.704 1739.66 275.699 1724.97 284.395C1708.48 294.291 1690.48 299.239 1670.99 299.239ZM1668.74 273.15C1683.74 273.15 1697.83 269.851 1711.03 263.254C1728.42 254.858 1740.71 242.263 1747.91 225.47C1755.41 208.377 1759.16 187.686 1759.16 163.396L1671.44 181.839C1652.25 186.037 1638.46 191.584 1630.06 198.482C1620.76 206.278 1616.12 216.474 1616.12 229.069C1616.12 242.863 1621.06 253.658 1630.96 261.455C1640.86 269.252 1653.45 273.15 1668.74 273.15Z" fill="white"/>
<path d="M1849.36 294.741V47.7954H1878.6V84.6798C1884.9 72.6849 1894.49 62.7891 1907.39 54.9924C1920.28 47.1957 1935.28 43.2973 1952.37 43.2973C1970.36 43.2973 1985.81 47.6455 1998.7 56.3418C2011.89 65.0381 2020.89 77.9326 2025.69 95.0254C2033.19 77.6328 2044.13 64.7382 2058.52 56.3418C2072.92 47.6455 2088.96 43.2973 2106.65 43.2973C2133.64 43.2973 2153.73 51.094 2166.93 66.6874C2180.42 82.2808 2187.17 104.771 2187.17 134.159V294.741H2157.93V141.356C2157.93 119.465 2153.58 102.072 2144.89 89.1779C2136.19 75.9835 2122.7 69.3863 2104.41 69.3863C2081.32 69.3863 2063.77 78.5324 2051.78 96.8246C2045.78 106.121 2041.13 117.666 2037.83 131.46C2034.83 144.954 2033.34 161.747 2033.34 181.839V294.741H2004.1V141.356C2004.1 119.465 1999.45 102.072 1990.15 89.1779C1980.86 75.9835 1967.36 69.3863 1949.67 69.3863C1927.48 69.3863 1909.94 78.6823 1897.04 97.2745C1890.75 106.271 1886.1 117.516 1883.1 131.01C1880.1 144.504 1878.6 161.447 1878.6 181.839V294.741H1849.36Z" fill="white"/>
<path d="M2366.95 43.2973C2387.94 43.2973 2406.68 48.845 2423.17 59.9403C2439.67 70.7357 2452.41 85.8793 2461.41 105.371C2470.4 124.563 2474.9 146.454 2474.9 171.043C2474.9 195.933 2470.4 218.123 2461.41 237.615C2452.41 256.807 2439.67 271.95 2423.17 283.046C2406.98 293.841 2388.24 299.239 2366.95 299.239C2349.25 299.239 2332.91 295.041 2317.92 286.644C2302.92 277.948 2289.88 265.353 2278.78 248.86V391H2249.55V47.7954H2278.78V93.676C2289.88 77.4828 2302.77 65.0381 2317.47 56.3418C2332.46 47.6455 2348.95 43.2973 2366.95 43.2973ZM2364.25 69.3863C2347.75 69.3863 2332.91 73.8844 2319.72 82.8806C2306.82 91.5769 2296.63 103.722 2289.13 119.315C2281.63 134.609 2277.88 151.851 2277.88 171.043C2277.88 190.235 2281.63 207.628 2289.13 223.221C2296.63 238.814 2306.82 251.109 2319.72 260.105C2332.91 268.802 2347.75 273.15 2364.25 273.15C2380.74 273.15 2395.13 268.802 2407.43 260.105C2419.72 251.109 2429.17 238.964 2435.77 223.671C2442.36 208.078 2445.66 190.535 2445.66 171.043C2445.66 151.851 2442.36 134.609 2435.77 119.315C2429.17 103.722 2419.72 91.5769 2407.43 82.8806C2395.13 73.8844 2380.74 69.3863 2364.25 69.3863Z" fill="white"/>
<path d="M330.292 165.146C330.292 132.483 320.606 100.554 302.46 73.3959C284.313 46.2377 258.521 25.0706 228.345 12.5711C198.168 0.0715551 164.963 -3.19889 132.928 3.17331C100.892 9.5455 71.4663 25.2741 48.3702 48.3702C25.2741 71.4663 9.5455 100.892 3.17331 132.928C-3.19889 164.963 0.0715551 198.168 12.5711 228.345C25.0706 258.521 46.2378 284.313 73.3959 302.46C100.554 320.606 132.483 330 165.146 330V290.355C140.382 290.355 116.174 283.012 95.5835 269.254C74.9929 255.496 58.9445 235.941 49.4677 213.062C39.9909 190.183 37.5113 165.007 42.3426 140.719C47.1738 116.431 59.0988 94.1205 76.6097 76.6097C94.1205 59.0988 116.431 47.1738 140.719 42.3426C165.007 37.5113 190.183 39.9909 213.062 49.4677C235.941 58.9445 255.496 74.9929 269.254 95.5835C283.012 116.174 290.355 140.382 290.355 165.146H330.292Z" fill="white"/>
<path d="M108.743 320.226L110.757 104.328H165.134V131.315C173.459 119.768 182.723 111.578 192.927 106.745C203.4 101.911 215.618 99.4942 229.582 99.4942H236.026V151.858H223.54C206.354 151.858 192.927 156.423 183.26 165.553C177.084 171.729 172.519 179.65 169.565 189.318C166.611 198.716 165.134 210.8 165.134 225.569V329.289L149.023 328.282L133.918 326.268L119.82 323.247L108.743 320.226Z" fill="white"/>
</svg>
